<?xml version="1.0" encoding="UTF-8"?>
<svg xmlns="http://www.w3.org/2000/svg" xmlns:xlink="http://www.w3.org/1999/xlink" width="5pt" height="5pt" viewBox="0 0 5 5" version="1.1">
<g id="surface6260244">
<path style=" stroke:none;fill-rule:nonzero;fill:rgb(100%,100%,100%);fill-opacity:1;" d="M 3.535156 0.472656 C 3.484375 0.480469 3.433594 0.492188 3.382812 0.511719 L 3.382812 0.507812 C 3.382812 0.507812 3.375 0.511719 3.375 0.511719 C 2.992188 0.644531 2.265625 0.980469 1.605469 1.640625 C 0.941406 2.304688 0.621094 3.046875 0.480469 3.414062 L 0.480469 3.417969 C 0.414062 3.609375 0.460938 3.8125 0.585938 3.960938 L 0.589844 3.964844 L 0.589844 3.96875 L 1.058594 4.433594 L 1.078125 4.453125 C 1.207031 4.582031 1.433594 4.582031 1.5625 4.453125 L 2.203125 3.8125 C 2.332031 3.683594 2.332031 3.453125 2.203125 3.324219 L 1.894531 3.019531 C 1.949219 2.90625 2.085938 2.632812 2.335938 2.375 C 2.578125 2.117188 2.859375 1.984375 2.96875 1.9375 L 3.292969 2.261719 L 3.304688 2.269531 C 3.378906 2.320312 3.460938 2.347656 3.550781 2.34375 C 3.632812 2.339844 3.714844 2.300781 3.78125 2.230469 L 3.785156 2.238281 L 3.792969 2.222656 L 4.425781 1.597656 C 4.554688 1.46875 4.554688 1.238281 4.425781 1.109375 L 3.941406 0.625 C 3.871094 0.558594 3.78125 0.503906 3.683594 0.484375 C 3.632812 0.472656 3.585938 0.46875 3.535156 0.472656 Z M 3.558594 0.785156 C 3.617188 0.78125 3.679688 0.808594 3.714844 0.84375 L 4.203125 1.328125 C 4.230469 1.355469 4.230469 1.34375 4.203125 1.371094 L 3.550781 2.027344 C 3.550781 2.027344 3.550781 2.03125 3.535156 2.03125 C 3.523438 2.03125 3.503906 2.023438 3.488281 2.011719 L 3.476562 2.011719 L 3.109375 1.640625 L 3.035156 1.566406 L 2.945312 1.601562 C 2.945312 1.601562 2.464844 1.78125 2.105469 2.160156 C 1.75 2.527344 1.558594 2.984375 1.558594 2.984375 L 1.519531 3.082031 L 1.589844 3.160156 L 1.980469 3.550781 C 2.007812 3.578125 2.007812 3.566406 1.980469 3.59375 L 1.34375 4.234375 C 1.316406 4.261719 1.324219 4.261719 1.296875 4.234375 L 0.820312 3.761719 C 0.820312 3.757812 0.820312 3.757812 0.820312 3.753906 L 0.816406 3.75 C 0.761719 3.683594 0.746094 3.609375 0.769531 3.527344 C 0.773438 3.523438 0.769531 3.523438 0.769531 3.519531 C 0.910156 3.167969 1.214844 2.476562 1.832031 1.859375 C 2.449219 1.242188 3.152344 0.925781 3.492188 0.804688 L 3.496094 0.800781 L 3.5 0.800781 C 3.519531 0.792969 3.539062 0.789062 3.558594 0.785156 Z M 3.558594 0.785156 "/>
</g>
</svg>
