<svg xmlns="http://www.w3.org/2000/svg" viewBox="0 0 100 100" width="100px" height="100px"><path fill="#c7ede6" d="M87.215,56.71C88.35,54.555,89,52.105,89,49.5c0-6.621-4.159-12.257-10.001-14.478C78.999,35.015,79,35.008,79,35c0-11.598-9.402-21-21-21c-9.784,0-17.981,6.701-20.313,15.757C36.211,29.272,34.638,29,33,29c-7.692,0-14.023,5.793-14.89,13.252C12.906,43.353,9,47.969,9,53.5C9,59.851,14.149,65,20.5,65c0.177,0,0.352-0.012,0.526-0.022C21.022,65.153,21,65.324,21,65.5C21,76.822,30.178,86,41.5,86c6.437,0,12.175-2.972,15.934-7.614C59.612,80.611,62.64,82,66,82c4.65,0,8.674-2.65,10.666-6.518C77.718,75.817,78.837,76,80,76c6.075,0,11-4.925,11-11C91,61.689,89.53,58.727,87.215,56.71z"/><path fill="#fff" d="M15.5 51h-10C5.224 51 5 50.776 5 50.5S5.224 50 5.5 50h10c.276 0 .5.224.5.5S15.777 51 15.5 51zM18.5 51h-1c-.276 0-.5-.224-.5-.5s.224-.5.5-.5h1c.276 0 .5.224.5.5S18.777 51 18.5 51zM23.491 53H14.5c-.276 0-.5-.224-.5-.5s.224-.5.5-.5h8.991c.276 0 .5.224.5.5S23.767 53 23.491 53zM12.5 53h-1c-.276 0-.5-.224-.5-.5s.224-.5.5-.5h1c.276 0 .5.224.5.5S12.777 53 12.5 53zM9.5 53h-2C7.224 53 7 52.776 7 52.5S7.224 52 7.5 52h2c.276 0 .5.224.5.5S9.777 53 9.5 53zM15.5 55h-2c-.276 0-.5-.224-.5-.5s.224-.5.5-.5h2c.276 0 .5.224.5.5S15.776 55 15.5 55zM18.5 46c-.177 0-.823 0-1 0-.276 0-.5.224-.5.5 0 .276.224.5.5.5.177 0 .823 0 1 0 .276 0 .5-.224.5-.5C19 46.224 18.776 46 18.5 46zM18.5 48c-.177 0-4.823 0-5 0-.276 0-.5.224-.5.5 0 .276.224.5.5.5.177 0 4.823 0 5 0 .276 0 .5-.224.5-.5C19 48.224 18.776 48 18.5 48zM23.5 50c-.177 0-2.823 0-3 0-.276 0-.5.224-.5.5 0 .276.224.5.5.5.177 0 2.823 0 3 0 .276 0 .5-.224.5-.5C24 50.224 23.776 50 23.5 50zM72.5 24h-10c-.276 0-.5-.224-.5-.5s.224-.5.5-.5h10c.276 0 .5.224.5.5S72.776 24 72.5 24zM76.5 24h-2c-.276 0-.5-.224-.5-.5s.224-.5.5-.5h2c.276 0 .5.224.5.5S76.776 24 76.5 24zM81.5 26h-10c-.276 0-.5-.224-.5-.5s.224-.5.5-.5h10c.276 0 .5.224.5.5S81.777 26 81.5 26zM69.5 26h-1c-.276 0-.5-.224-.5-.5s.224-.5.5-.5h1c.276 0 .5.224.5.5S69.776 26 69.5 26zM66.47 26H64.5c-.276 0-.5-.224-.5-.5s.224-.5.5-.5h1.97c.276 0 .5.224.5.5S66.746 26 66.47 26zM75.5 22h-5c-.276 0-.5-.224-.5-.5s.224-.5.5-.5h5c.276 0 .5.224.5.5S75.777 22 75.5 22zM72.5 28h-2c-.276 0-.5-.224-.5-.5s.224-.5.5-.5h2c.276 0 .5.224.5.5S72.776 28 72.5 28z"/><g><path fill="#fdfcef" d="M30.5,45.5c0,0-1.567,0-3.5,0s-3.5-1.567-3.5-3.5c0-1.781,1.335-3.234,3.055-3.455C26.527,38.366,26.5,38.187,26.5,38c0-1.933,1.567-3.5,3.5-3.5c1.032,0,1.95,0.455,2.59,1.165c0.384-1.808,1.987-3.165,3.91-3.165c2.209,0,4,1.791,4,4c0,0.191-0.03,0.374-0.056,0.558C40.872,36.714,41.408,36.5,42,36.5c1.228,0,2.245,0.887,2.455,2.055C44.634,38.527,44.813,38.5,45,38.5c1.933,0,3.5,1.567,3.5,3.5s-1.567,3.5-3.5,3.5s-7.5,0-7.5,0"/><path fill="#472b29" d="M28.75 41c.138 0 .25-.112.25-.25 0-1.223-.995-2.218-2.218-2.218-.034.009-.737-.001-1.244.136-.133.036-.212.173-.176.306.036.134.173.213.306.176.444-.12 1.1-.12 1.113-.118.948 0 1.719.771 1.719 1.718C28.5 40.888 28.612 41 28.75 41zM35.5 45A.5.5 0 1 0 35.5 46 .5.5 0 1 0 35.5 45z"/><path fill="#472b29" d="M27,46h3.5c0.276,0,0.5-0.224,0.5-0.5S30.776,45,30.5,45H27c-1.654,0-3-1.346-3-3c0-1.496,1.125-2.768,2.618-2.959c0.134-0.018,0.255-0.088,0.336-0.196s0.115-0.244,0.094-0.377C27.025,38.314,27,38.16,27,38c0-1.654,1.346-3,3-3c0.85,0,1.638,0.355,2.219,1c0.125,0.139,0.321,0.198,0.5,0.148c0.182-0.049,0.321-0.195,0.36-0.379C33.42,34.165,34.859,33,36.5,33c1.93,0,3.5,1.57,3.5,3.5c0,0.143-0.021,0.28-0.041,0.418c-0.029,0.203,0.063,0.438,0.242,0.54c0.179,0.102,0.396,0.118,0.556-0.01C41.122,37.155,41.551,37,42,37c0.966,0,1.792,0.691,1.963,1.644c0.048,0.267,0.296,0.446,0.569,0.405C44.686,39.025,44.84,39,45,39c1.654,0,3,1.346,3,3s-1.346,3-3,3h-7.5c-0.276,0-0.5,0.224-0.5,0.5s0.224,0.5,0.5,0.5H45c2.206,0,4-1.794,4-4s-1.794-4-4-4c-0.059,0-0.116,0.002-0.174,0.006C44.412,36.82,43.289,36,42,36c-0.349,0-0.689,0.061-1.011,0.18C40.824,33.847,38.874,32,36.5,32c-1.831,0-3.466,1.127-4.153,2.774C31.667,34.276,30.845,34,30,34c-2.206,0-4,1.794-4,4c0,0.048,0.001,0.095,0.004,0.142C24.261,38.59,23,40.169,23,42C23,44.206,24.794,46,27,46z"/><path fill="#472b29" d="M32.5,45c0.159,0,0.841,0,1,0c0.276,0,0.5,0.224,0.5,0.5c0,0.276-0.224,0.5-0.5,0.5c-0.159,0-0.841,0-1,0c-0.276,0-0.5-0.224-0.5-0.5C32,45.224,32.224,45,32.5,45z"/></g><g><path fill="#78a0cf" d="M69,30h-9c-0.552,0-1,0.448-1,1v4c0,0.552,0.448,1,1,1h4.757l-7.766,7.766c-2.711-1.845-6.016-2.882-9.571-2.756C38.704,41.319,32,48.279,32,57c0,8.837,7.163,16,16,16c8.721,0,15.682-6.706,15.99-15.421c0.126-3.554-0.911-6.859-2.756-9.57L69,40.243V45c0,0.552,0.448,1,1,1h4c0.552,0,1-0.448,1-1v-9v-5c0-0.552-0.448-1-1-1H69z"/></g><path fill="#472b29" d="M73.6,31.4V36v8.6h-3.2v-4.357c0-0.566-0.341-1.077-0.864-1.293c-0.173-0.072-0.355-0.107-0.535-0.107c-0.364,0-0.722,0.142-0.99,0.41l-7.766,7.766c-0.475,0.475-0.546,1.222-0.167,1.778c1.756,2.579,2.625,5.599,2.514,8.732C62.307,65.551,56.035,71.6,48,71.6c-8.05,0-14.6-6.55-14.6-14.6c0-8.034,6.048-14.306,14.069-14.591C47.647,42.403,47.824,42.4,48,42.4c2.941,0,5.778,0.873,8.203,2.524c0.239,0.163,0.514,0.243,0.787,0.243c0.361,0,0.72-0.139,0.99-0.41l7.766-7.766c0.4-0.4,0.52-1.003,0.303-1.526c-0.217-0.523-0.727-0.864-1.293-0.864H60.4v-3.2H69H73.6 M74,30h-5h-9c-0.552,0-1,0.448-1,1v4c0,0.552,0.448,1,1,1h4.757l-7.766,7.766C54.428,42.022,51.334,41,48,41c-0.193,0-0.386,0.003-0.58,0.01C38.704,41.319,32,48.279,32,57c0,8.837,7.163,16,16,16c8.721,0,15.682-6.706,15.99-15.421c0.126-3.554-0.911-6.859-2.756-9.57L69,40.243V45c0,0.552,0.448,1,1,1h4c0.552,0,1-0.448,1-1v-9v-5C75,30.448,74.552,30,74,30L74,30z"/><path fill="#c5def0" d="M48 46A11 11 0 1 0 48 68A11 11 0 1 0 48 46Z"/><g><path fill="#472b29" d="M38.512,51c-0.098,0-0.196-0.028-0.283-0.088c-0.228-0.156-0.285-0.467-0.129-0.695c0.312-0.455,0.659-0.893,1.031-1.3c0.187-0.204,0.503-0.219,0.706-0.032c0.204,0.186,0.219,0.502,0.032,0.706c-0.341,0.374-0.659,0.775-0.945,1.192C38.827,50.924,38.671,51,38.512,51z"/></g><g><path fill="#472b29" d="M37.042,54c-0.051,0-0.102-0.008-0.152-0.024c-0.264-0.084-0.408-0.366-0.324-0.629c0.114-0.355,0.244-0.703,0.389-1.043c0.108-0.254,0.4-0.372,0.656-0.264c0.254,0.108,0.372,0.402,0.264,0.656c-0.133,0.312-0.251,0.631-0.355,0.957C37.45,53.865,37.254,54,37.042,54z"/></g><g><path fill="#472b29" d="M48,69c-6.617,0-12-5.383-12-12c0-0.521,0.034-1.047,0.101-1.564c0.036-0.274,0.281-0.463,0.561-0.432c0.273,0.036,0.467,0.286,0.432,0.56C37.031,56.039,37,56.522,37,57c0,6.065,4.935,11,11,11s11-4.935,11-11s-4.935-11-11-11c-2.234,0-4.384,0.666-6.217,1.924c-0.229,0.157-0.539,0.099-0.695-0.129c-0.156-0.228-0.099-0.539,0.129-0.695C43.218,45.726,45.563,45,48,45c6.617,0,12,5.383,12,12S54.617,69,48,69z"/></g><g><path fill="#fdfcef" d="M66.875,72.5c0,0,4.64,0,7.125,0s4.5-2.015,4.5-4.5c0-2.333-1.782-4.229-4.055-4.455C74.467,63.364,74.5,63.187,74.5,63c0-2.485-2.015-4.5-4.5-4.5c-1.438,0-2.703,0.686-3.527,1.736C66.333,57.6,64.171,55.5,61.5,55.5c-2.761,0-5,2.239-5,5c0,0.446,0.077,0.87,0.187,1.282C56.045,61.005,55.086,60.5,54,60.5c-1.781,0-3.234,1.335-3.455,3.055C50.364,63.533,50.187,63.5,50,63.5c-2.485,0-4.5,2.015-4.5,4.5s2.015,4.5,4.5,4.5s9.5,0,9.5,0H66.875z"/><path fill="#472b29" d="M61.5,55c-3.033,0-5.5,2.467-5.5,5.5c0,0.016,0,0.031,0,0.047C55.398,60.192,54.71,60,54,60c-1.831,0-3.411,1.261-3.858,3.005C50.095,63.002,50.048,63,50,63c-2.757,0-5,2.243-5,5s2.243,5,5,5h14.5c0.276,0,0.5-0.224,0.5-0.5S64.776,72,64.5,72H50c-2.206,0-4-1.794-4-4s1.794-4,4-4c0.117,0,0.23,0.017,0.343,0.032l0.141,0.019c0.021,0.003,0.041,0.004,0.062,0.004c0.246,0,0.462-0.185,0.495-0.437C51.232,62.125,52.504,61,54,61c0.885,0,1.723,0.401,2.301,1.1c0.098,0.118,0.241,0.182,0.386,0.182c0.078,0,0.156-0.018,0.228-0.056c0.209-0.107,0.314-0.346,0.254-0.573C57.054,61.218,57,60.852,57,60.5c0-2.481,2.019-4.5,4.5-4.5c2.381,0,4.347,1.872,4.474,4.263c0.011,0.208,0.15,0.387,0.349,0.45c0.05,0.016,0.101,0.024,0.152,0.024c0.15,0,0.296-0.069,0.392-0.192C67.638,59.563,68.779,59,70,59c2.206,0,4,1.794,4,4c0,0.117-0.017,0.23-0.032,0.343l-0.019,0.141c-0.016,0.134,0.022,0.268,0.106,0.373c0.084,0.105,0.207,0.172,0.34,0.185C76.451,64.247,78,65.949,78,68c0,2.206-1.794,4-4,4h-6.5c-0.276,0-0.5,0.224-0.5,0.5s0.224,0.5,0.5,0.5H74c2.757,0,5-2.243,5-5c0-2.397-1.689-4.413-4.003-4.877C74.999,63.082,75,63.041,75,63c0-2.757-2.243-5-5-5c-1.176,0-2.293,0.416-3.183,1.164C66.219,56.76,64.055,55,61.5,55L61.5,55z"/><path fill="#472b29" d="M60 62c-1.403 0-2.609.999-2.913 2.341C56.72 64.119 56.301 64 55.875 64c-1.202 0-2.198.897-2.353 2.068C53.319 66.022 53.126 66 52.937 66c-1.529 0-2.811 1.2-2.918 2.732C50.01 68.87 50.114 68.99 50.251 69c.006 0 .012 0 .018 0 .13 0 .24-.101.249-.232.089-1.271 1.151-2.268 2.419-2.268.229 0 .47.042.738.127.022.007.045.01.067.01.055 0 .11-.02.156-.054C53.962 66.537 54 66.455 54 66.375c0-1.034.841-1.875 1.875-1.875.447 0 .885.168 1.231.473.047.041.106.063.165.063.032 0 .063-.006.093-.019.088-.035.148-.117.155-.212C57.623 63.512 58.712 62.5 60 62.5c.208 0 .425.034.682.107.023.007.047.01.07.01.109 0 .207-.073.239-.182.038-.133-.039-.271-.172-.309C60.517 62.04 60.256 62 60 62L60 62zM73.883 63.5c-1.326 0-2.508.897-2.874 2.182-.038.133.039.271.172.309C71.205 65.997 71.228 66 71.25 66c.109 0 .209-.072.24-.182C71.795 64.748 72.779 64 73.883 64c.117 0 .23.014.342.029.012.002.023.003.035.003.121 0 .229-.092.246-.217.019-.137-.077-.263-.214-.281C74.158 63.516 74.022 63.5 73.883 63.5L73.883 63.5z"/></g></svg>