<?xml version="1.0"?><svg fill="#000000" xmlns="http://www.w3.org/2000/svg" viewBox="0 0 24 24" width="24px" height="24px">    <path d="M 6.4707031 4 C 5.8307031 4 5.2597344 4.4076719 5.0527344 5.0136719 L 3 11 L 3 18 L 3 19 C 3 19.552 3.448 20 4 20 L 5 20 C 5.552 20 6 19.552 6 19 L 6 18 L 18 18 L 18 19 C 18 19.552 18.448 20 19 20 L 20 20 C 20.552 20 21 19.552 21 19 L 21 17 L 21 11 L 18.947266 5.0136719 C 18.740266 4.4076719 18.169297 4 17.529297 4 L 6.4707031 4 z M 6.828125 6 L 17.171875 6 L 18.201172 9 L 5.7988281 9 L 6.828125 6 z M 5.1132812 11 L 18.886719 11 L 19 11.332031 L 19 16 L 5 16 L 5 11.332031 L 5.1132812 11 z M 7.5 12 A 1.5 1.5 0 0 0 6 13.5 A 1.5 1.5 0 0 0 7.5 15 A 1.5 1.5 0 0 0 9 13.5 A 1.5 1.5 0 0 0 7.5 12 z M 16.5 12 A 1.5 1.5 0 0 0 15 13.5 A 1.5 1.5 0 0 0 16.5 15 A 1.5 1.5 0 0 0 18 13.5 A 1.5 1.5 0 0 0 16.5 12 z"/></svg>