<svg xmlns="http://www.w3.org/2000/svg" viewBox="0 0 100 100" width="100px" height="100px"><path fill="#c8ede6" d="M87.234,55.551c0.3-0.616,0.566-1.264,0.796-1.943c2.633-7.77-1.349-17.078-9.733-19.325 C77.391,22.9,69.391,15.09,60.356,13.758c-10.341-1.525-19.814,5.044-22.966,15.485c-3.799-1.346-7.501-1.182-10.99,0.857 c-1.583,0.732-3.031,1.812-4.33,3.233c-1.907,2.086-3.147,4.719-3.652,7.495c-0.748,0.118-1.483,0.236-2.176,0.484 c-4.04,1.449-6.589,4.431-7.288,8.923c-0.435,2.797,0.443,5.587,0.933,6.714c1.935,4.455,6.422,6.98,10.981,6.312 c0.227-0.033,0.557,0.069,0.752,0.233c0.241,7.12,3.698,13.417,8.884,17.014c8.321,5.772,19.027,3.994,25.781-3.921 c2.894,2.96,6.338,4.398,10.384,3.876c4.023-0.519,7.147-2.739,9.426-6.349c1.053,0.283,2.051,0.691,3.083,0.804 c4.042,0.442,7.297-1.184,9.732-4.8c0.083-0.124,0.203-0.219,0.306-0.328c0.348-0.798,0.696-1.596,1.044-2.394 c0.155-1.211,0.429-2.423,0.443-3.632C90.742,60.508,89.411,57.54,87.234,55.551z"/><path fill="#fdfcef" d="M70.674,42.423c0,0-11.691,0-11.762,0c-2.7,0-4.888-2.189-4.888-4.889 c0-2.355,1.666-4.321,3.884-4.784c-0.026-0.206-0.043-0.415-0.043-0.628c0-2.796,2.267-5.063,5.063-5.063 c1.651,0,3.113,0.794,4.037,2.017c0.236-3.113,3.017-5.514,6.27-5.116c2.379,0.291,4.346,2.13,4.784,4.486 c0.14,0.756,0.126,1.489-0.014,2.177c0.638-0.687,1.546-1.119,2.557-1.119c1.85,0,3.361,1.441,3.48,3.261 c0.84-0.186,1.754-0.174,2.717,0.188c1.84,0.691,3.15,2.423,3.227,4.387c0.109,2.789-2.12,5.085-4.885,5.085 c-0.21,0-0.948,0-1.118,0H73.832"/><path fill="#472b29" d="M58.912,42.923h11.762c0.276,0,0.5-0.224,0.5-0.5s-0.224-0.5-0.5-0.5H58.912 c-2.42,0-4.389-1.969-4.389-4.389c0-2.066,1.466-3.873,3.486-4.295c0.255-0.053,0.426-0.293,0.394-0.552 c-0.023-0.186-0.039-0.374-0.039-0.565c0-2.517,2.047-4.563,4.562-4.563c1.438,0,2.765,0.663,3.638,1.818 c0.125,0.166,0.338,0.237,0.54,0.178c0.199-0.059,0.342-0.234,0.357-0.441c0.104-1.377,0.779-2.671,1.85-3.549 c1.083-0.888,2.456-1.282,3.86-1.109c2.166,0.266,3.956,1.943,4.353,4.081c0.124,0.667,0.12,1.335-0.013,1.986 c-0.044,0.22,0.062,0.442,0.262,0.544c0.2,0.104,0.443,0.06,0.595-0.104c0.575-0.618,1.353-0.959,2.19-0.959 c1.569,0,2.878,1.228,2.981,2.794c0.01,0.146,0.082,0.279,0.199,0.366c0.117,0.089,0.268,0.12,0.408,0.089 c0.841-0.185,1.637-0.132,2.433,0.167c1.669,0.627,2.835,2.209,2.903,3.938c0.047,1.207-0.387,2.35-1.221,3.218 c-0.835,0.869-1.959,1.348-3.164,1.348H73.828c-0.276,0-0.5,0.224-0.5,0.5s0.224,0.5,0.5,0.5h11.271 c1.479,0,2.858-0.588,3.884-1.654c1.025-1.066,1.558-2.469,1.5-3.95c-0.083-2.126-1.51-4.069-3.55-4.835 c-0.8-0.301-1.626-0.398-2.468-0.299c-0.377-1.822-1.998-3.182-3.905-3.182c-0.684,0-1.354,0.18-1.944,0.51 c0-0.386-0.035-0.772-0.106-1.159c-0.477-2.562-2.621-4.573-5.215-4.891c-1.679-0.205-3.32,0.266-4.616,1.328 c-1.003,0.823-1.716,1.951-2.038,3.193c-1.012-0.916-2.319-1.426-3.714-1.426c-3.067,0-5.562,2.496-5.562,5.563 c0,0.083,0.002,0.166,0.007,0.248c-2.254,0.673-3.848,2.776-3.848,5.164C53.523,40.507,55.94,42.923,58.912,42.923z"/><path fill="#fdfcef" d="M73.507,31.655c1.808-0.119,3.365,1.13,3.476,2.789c0.014,0.206,0.005,0.409-0.025,0.606 c0.349-0.394,0.865-0.661,1.458-0.7c1.085-0.071,2.022,0.645,2.158,1.62c0.197-0.054,0.403-0.09,0.616-0.104 c1.582-0.104,2.944,0.989,3.042,2.441"/><path fill="#472b29" d="M84.231,38.556c0.006,0,0.012,0,0.017-0.001c0.138-0.009,0.242-0.128,0.233-0.266 c-0.107-1.587-1.588-2.789-3.308-2.674c-0.137,0.009-0.273,0.026-0.409,0.053c-0.274-0.968-1.256-1.645-2.366-1.567 c-0.425,0.027-0.823,0.159-1.164,0.382c0-0.019-0.002-0.037-0.003-0.056c-0.12-1.795-1.787-3.16-3.742-3.021 c-0.138,0.009-0.242,0.128-0.233,0.266c0.009,0.138,0.124,0.255,0.266,0.232c1.651-0.105,3.108,1.037,3.21,2.557 c0.012,0.184,0.004,0.37-0.023,0.553c-0.017,0.109,0.041,0.217,0.141,0.264s0.219,0.022,0.293-0.061 c0.323-0.365,0.78-0.584,1.287-0.617c0.951-0.034,1.775,0.556,1.894,1.404c0.01,0.071,0.05,0.135,0.11,0.175 c0.06,0.039,0.133,0.051,0.204,0.032c0.187-0.051,0.377-0.083,0.567-0.097c1.44-0.092,2.687,0.896,2.775,2.209 C83.991,38.455,84.101,38.556,84.231,38.556z"/><path fill="#fdfcef" d="M56.932,33.323c1.699-0.801,3.664-0.234,4.389,1.267c0.09,0.186,0.157,0.379,0.201,0.574"/><path fill="#472b29" d="M61.522,35.414c0.018,0,0.037-0.002,0.056-0.006c0.134-0.031,0.219-0.165,0.188-0.3 c-0.049-0.217-0.123-0.428-0.219-0.627c-0.783-1.621-2.902-2.239-4.721-1.385c-0.125,0.06-0.179,0.208-0.12,0.333 c0.059,0.126,0.209,0.176,0.333,0.12c1.574-0.744,3.394-0.227,4.058,1.149c0.08,0.165,0.141,0.34,0.182,0.521 C61.305,35.336,61.408,35.414,61.522,35.414z"/><path fill="#fff" d="M17.899,43H7.869c-0.276,0-0.5-0.224-0.5-0.5s0.224-0.5,0.5-0.5h10.03c0.276,0,0.5,0.224,0.5,0.5 S18.176,43,17.899,43z M21.28,42.5c0-0.276-0.224-0.5-0.5-0.5h-1.446c-0.276,0-0.5,0.224-0.5,0.5s0.224,0.5,0.5,0.5h1.446 C21.057,43,21.28,42.776,21.28,42.5z M25.335,42.5c0-0.276-0.224-0.5-0.5-0.5h-2.546c-0.276,0-0.5,0.224-0.5,0.5s0.224,0.5,0.5,0.5 h2.546C25.112,43,25.335,42.776,25.335,42.5z M25.335,44.5c0-0.276-0.224-0.5-0.5-0.5h-9.616c-0.276,0-0.5,0.224-0.5,0.5 s0.224,0.5,0.5,0.5h9.616C25.112,45,25.335,44.776,25.335,44.5z M13.987,44.5c0-0.276-0.224-0.5-0.5-0.5h-0.58 c-0.276,0-0.5,0.224-0.5,0.5s0.224,0.5,0.5,0.5h0.58C13.763,45,13.987,44.776,13.987,44.5z M11.611,44.5c0-0.276-0.224-0.5-0.5-0.5 H9.654c-0.276,0-0.5,0.224-0.5,0.5s0.224,0.5,0.5,0.5h1.457C11.387,45,11.611,44.776,11.611,44.5z M20.746,40.5 c0-0.276-0.224-0.5-0.5-0.5h-5.027c-0.276,0-0.5,0.224-0.5,0.5s0.224,0.5,0.5,0.5h5.027C20.523,41,20.746,40.776,20.746,40.5z M20.746,38.5c0-0.276-0.224-0.5-0.5-0.5h-1.257c-0.276,0-0.5,0.224-0.5,0.5s0.224,0.5,0.5,0.5h1.257 C20.523,39,20.746,38.776,20.746,38.5z M17.477,46.5c0-0.276-0.224-0.5-0.5-0.5h-1.758c-0.276,0-0.5,0.224-0.5,0.5 s0.224,0.5,0.5,0.5h1.758C17.254,47,17.477,46.776,17.477,46.5z"/><path fill="#fffef4" d="M69.21,70.083H31.877c-2.093,0-3.79-1.697-3.79-3.79V36.79c0-2.093,1.697-3.79,3.79-3.79H69.21 c2.093,0,3.79,1.697,3.79,3.79v29.504C73,68.387,71.303,70.083,69.21,70.083z"/><path fill="#d6d3c5" d="M72.493,41.604H28.087v-5.293c0-1.069,0.867-1.936,1.936-1.936h40.536 c1.068,0,1.934,0.866,1.934,1.934V41.604z"/><path fill="#fffef4" d="M56.456 67.671L54.034 73.665 60.028 71.243"/><path fill="#472b29" d="M54.034,74.365c-0.182,0-0.361-0.071-0.495-0.205c-0.198-0.199-0.259-0.497-0.154-0.758 l2.422-5.994l1.299,0.525l-1.805,4.464l4.465-1.805l0.525,1.299l-5.994,2.423C54.212,74.349,54.122,74.365,54.034,74.365z"/><path fill="#ef7d99" d="M71.548,58.556c-0.646,0-1.251-0.249-1.703-0.701c-0.939-0.939-0.939-2.467,0-3.406l1.884-1.884 c0.452-0.453,1.058-0.702,1.703-0.702s1.251,0.249,1.703,0.702c0.939,0.938,0.939,2.467,0,3.405l-1.885,1.885 C72.798,58.307,72.193,58.556,71.548,58.556z"/><path fill="#472b29" d="M73.432,52.563c0.459,0,0.888,0.176,1.208,0.497c0.666,0.666,0.666,1.75,0,2.416l-1.884,1.884 c-0.32,0.32-0.749,0.497-1.208,0.497s-0.888-0.176-1.208-0.497c-0.32-0.32-0.497-0.749-0.497-1.208 c0-0.459,0.176-0.888,0.497-1.208l1.884-1.884C72.544,52.739,72.973,52.563,73.432,52.563 M73.432,51.163 c-0.797,0-1.594,0.302-2.198,0.907l-1.884,1.884c-1.209,1.209-1.209,3.187,0,4.396c0.604,0.604,1.401,0.907,2.198,0.907 c0.797,0,1.594-0.302,2.198-0.907l1.884-1.884c1.209-1.209,1.209-3.187,0-4.396C75.025,51.465,74.228,51.163,73.432,51.163 L73.432,51.163z"/><path fill="#f2df5e" d="M55.885 60.337H74.023V65.153H55.885z" transform="rotate(-45.001 64.95 62.745)"/><path fill="#472b29" d="M69.664,55.619l2.416,2.416L60.244,69.871l-2.416-2.416L69.664,55.619 M69.664,53.639 L55.848,67.455l4.396,4.396L74.06,58.035L69.664,53.639L69.664,53.639z"/><path fill="#88cdd7" d="M70.027 53.743H73.06700000000001V58.559000000000005H70.027z" transform="rotate(-45.001 71.547 56.152)"/><path fill="#472b29" d="M70.92 54.363l2.416 2.416-1.16 1.16-2.416-2.416L70.92 54.363M70.92 52.383l-3.14 3.14 4.396 4.396 3.14-3.14L70.92 52.383 70.92 52.383zM56.5 50h-17c-.276 0-.5-.224-.5-.5s.224-.5.5-.5h17c.276 0 .5.224.5.5S56.776 50 56.5 50zM54.5 42H28c-.276 0-.5-.224-.5-.5S27.724 41 28 41h26.5c.276 0 .5.224.5.5S54.776 42 54.5 42z"/><g><path fill="#472b29" d="M64.5,50h-5c-0.276,0-0.5-0.224-0.5-0.5s0.224-0.5,0.5-0.5h5c0.276,0,0.5,0.224,0.5,0.5 S64.776,50,64.5,50z"/></g><g><path fill="#472b29" d="M62.5,42h-6c-0.276,0-0.5-0.224-0.5-0.5s0.224-0.5,0.5-0.5h6c0.276,0,0.5,0.224,0.5,0.5 S62.776,42,62.5,42z"/></g><g><path fill="#472b29" d="M67.5,42h-3c-0.276,0-0.5-0.224-0.5-0.5s0.224-0.5,0.5-0.5h3c0.276,0,0.5,0.224,0.5,0.5 S67.776,42,67.5,42z"/></g><g><path fill="#472b29" d="M61.75,56H39.5c-0.276,0-0.5-0.224-0.5-0.5s0.224-0.5,0.5-0.5h22.25c0.276,0,0.5,0.224,0.5,0.5 S62.026,56,61.75,56z"/></g><g><path fill="#472b29" d="M56.438,63H39.5c-0.276,0-0.5-0.224-0.5-0.5s0.224-0.5,0.5-0.5h16.938c0.276,0,0.5,0.224,0.5,0.5 S56.714,63,56.438,63z"/></g><g><path fill="#472b29" d="M33.771,50.83c-0.132,0-0.26-0.053-0.354-0.146l-2.131-2.132c-0.195-0.195-0.195-0.512,0-0.707 s0.512-0.195,0.707,0l1.724,1.724l2.851-3.801c0.167-0.221,0.48-0.265,0.7-0.101c0.221,0.166,0.266,0.479,0.101,0.7l-3.197,4.263 c-0.087,0.116-0.221,0.188-0.365,0.199C33.794,50.83,33.782,50.83,33.771,50.83z"/></g><g><path fill="#472b29" d="M33.771,57.487c-0.132,0-0.26-0.053-0.354-0.146l-2.131-2.131c-0.195-0.195-0.195-0.512,0-0.707 s0.512-0.195,0.707,0l1.724,1.724l2.851-3.802c0.167-0.221,0.48-0.265,0.7-0.101c0.221,0.166,0.266,0.479,0.101,0.7l-3.197,4.263 c-0.087,0.116-0.221,0.188-0.365,0.199C33.794,57.487,33.782,57.487,33.771,57.487z"/></g><g><path fill="#472b29" d="M33.771,63.816c-0.132,0-0.26-0.053-0.354-0.146l-2.131-2.132c-0.195-0.195-0.195-0.512,0-0.707 s0.512-0.195,0.707,0l1.724,1.724l2.851-3.801c0.167-0.221,0.48-0.265,0.7-0.101c0.221,0.166,0.266,0.479,0.101,0.7l-3.197,4.263 c-0.087,0.116-0.221,0.188-0.365,0.199C33.794,63.816,33.782,63.816,33.771,63.816z"/></g><g><path fill="#fff" d="M51 22H41c-.276 0-.5-.224-.5-.5S40.724 21 41 21h10c.276 0 .5.224.5.5S51.276 22 51 22zM55 22h-2c-.276 0-.5-.224-.5-.5S52.724 21 53 21h2c.276 0 .5.224.5.5S55.276 22 55 22zM60 24H50c-.276 0-.5-.224-.5-.5S49.724 23 50 23h10c.276 0 .5.224.5.5S60.277 24 60 24zM48 24h-1c-.276 0-.5-.224-.5-.5S46.724 23 47 23h1c.276 0 .5.224.5.5S48.276 24 48 24zM44.875 24H43c-.276 0-.5-.224-.5-.5S42.724 23 43 23h1.875c.276 0 .5.224.5.5S45.151 24 44.875 24zM54 20h-5c-.276 0-.5-.224-.5-.5S48.724 19 49 19h5c.276 0 .5.224.5.5S54.277 20 54 20zM51 26h-2c-.276 0-.5-.224-.5-.5S48.724 25 49 25h2c.276 0 .5.224.5.5S51.276 26 51 26z"/></g><g><path fill="#472b29" d="M69.968,70.888h-3.905c-0.387,0-0.7-0.313-0.7-0.7s0.313-0.7,0.7-0.7h3.905 c1.39,0,2.52-1.141,2.52-2.543v-3.586c0-0.387,0.313-0.7,0.7-0.7s0.7,0.313,0.7,0.7v3.586 C73.888,69.118,72.129,70.888,69.968,70.888z"/></g><g><path fill="#472b29" d="M51.783,70.867H31.58c-2.475,0-4.488-1.908-4.488-4.253V37.303c0-2.345,2.014-4.253,4.488-4.253 h37.882c2.475,0,4.488,1.908,4.488,4.253V48.85c0,0.387-0.313,0.7-0.7,0.7s-0.7-0.313-0.7-0.7V37.303 c0-1.573-1.385-2.853-3.088-2.853H31.58c-1.703,0-3.088,1.279-3.088,2.853v29.312c0,1.573,1.385,2.853,3.088,2.853h20.203 c0.387,0,0.7,0.313,0.7,0.7S52.17,70.867,51.783,70.867z"/></g><g><path fill="#fdfcef" d="M35.178,79.287c1.883,0,3.517,0,3.54,0c2.11,0,3.821-1.674,3.821-3.739 c0-1.802-1.302-3.305-3.035-3.66c0.02-0.158,0.034-0.317,0.034-0.48c0-2.139-1.772-3.873-3.957-3.873 c-1.29,0-2.433,0.607-3.155,1.543c-0.185-2.381-2.358-4.218-4.9-3.913c-1.859,0.223-3.397,1.629-3.739,3.431 c-0.11,0.578-0.098,1.139,0.011,1.665c-0.498-0.525-1.208-0.856-1.998-0.856c-1.446,0-2.627,1.102-2.72,2.494 c-0.657-0.142-1.371-0.133-2.123,0.143c-1.438,0.528-2.462,1.853-2.522,3.356c-0.085,2.133,1.657,3.889,3.818,3.889 c0.164,0,0.741,0,0.874,0h7.934 M28.701,79.287h0.36"/><path fill="#472b29" d="M38.718,79.788h-3.54c-0.276,0-0.5-0.224-0.5-0.5s0.224-0.5,0.5-0.5h3.54 c1.831,0,3.321-1.453,3.321-3.239c0-1.524-1.108-2.858-2.636-3.17c-0.256-0.053-0.429-0.294-0.396-0.554 c0.018-0.137,0.03-0.275,0.03-0.417c0-1.86-1.551-3.373-3.457-3.373c-1.092,0-2.098,0.491-2.76,1.349 c-0.126,0.164-0.341,0.231-0.539,0.174c-0.198-0.06-0.339-0.234-0.355-0.44c-0.079-1.02-0.565-1.944-1.369-2.604 c-0.829-0.68-1.885-0.979-2.973-0.853c-1.646,0.197-3.006,1.442-3.307,3.027c-0.094,0.495-0.091,0.99,0.009,1.472 c0.045,0.219-0.06,0.441-0.258,0.545c-0.197,0.102-0.44,0.063-0.594-0.1c-0.428-0.451-1.009-0.7-1.635-0.7 c-1.169,0-2.145,0.891-2.221,2.027c-0.01,0.146-0.082,0.278-0.198,0.366c-0.116,0.087-0.264,0.12-0.406,0.089 c-0.639-0.138-1.243-0.098-1.846,0.125c-1.262,0.463-2.144,1.631-2.195,2.905c-0.035,0.876,0.283,1.709,0.895,2.346 c0.635,0.66,1.496,1.024,2.423,1.024h8.807c0.276,0,0.5,0.224,0.5,0.5s-0.224,0.5-0.5,0.5h-8.807 c-1.185,0-2.331-0.485-3.144-1.331c-0.803-0.836-1.219-1.929-1.173-3.078c0.067-1.675,1.212-3.204,2.849-3.806 c0.61-0.225,1.24-0.304,1.88-0.244c0.344-1.396,1.629-2.424,3.135-2.424c0.493,0,0.977,0.113,1.414,0.323 c0.009-0.242,0.037-0.484,0.083-0.727c0.381-2.009,2.096-3.585,4.17-3.833c1.365-0.167,2.685,0.218,3.726,1.071 c0.748,0.613,1.278,1.409,1.546,2.302c0.791-0.648,1.786-1.007,2.842-1.007c2.458,0,4.457,1.962,4.457,4.373 c0,0.034,0,0.068-0.001,0.103c1.764,0.555,3.003,2.188,3.003,4.038C43.039,77.886,41.101,79.788,38.718,79.788z M29.061,79.788 h-0.36c-0.276,0-0.5-0.224-0.5-0.5s0.224-0.5,0.5-0.5h0.36c0.276,0,0.5,0.224,0.5,0.5S29.337,79.788,29.061,79.788z"/><g><path fill="#472b29" d="M37.011,73.984c-0.018,0-0.036-0.002-0.055-0.006c-0.135-0.03-0.22-0.164-0.189-0.299 c0.037-0.164,0.094-0.325,0.17-0.479c0.604-1.224,2.272-1.677,3.722-1.007c0.125,0.058,0.18,0.206,0.122,0.331 c-0.058,0.126-0.207,0.179-0.332,0.122c-1.201-0.556-2.577-0.208-3.063,0.774c-0.058,0.118-0.102,0.242-0.13,0.367 C37.229,73.905,37.126,73.984,37.011,73.984z"/></g><g><path fill="#472b29" d="M31.852,79.788h-1.107c-0.276,0-0.5-0.224-0.5-0.5s0.224-0.5,0.5-0.5h1.107 c0.276,0,0.5,0.224,0.5,0.5S32.129,79.788,31.852,79.788z"/></g></g></svg>