<svg xmlns="http://www.w3.org/2000/svg" viewBox="0 0 64 64" width="64px" height="64px"><path fill="#f5c872" d="M39.961,13.393l-3.922-0.785c0.21-1.087,0.434-4.316-1.047-6.11C34.16,5.489,32.854,5,31,5 c-2.855,0-3,2.499-3,3v5h-4V8c0-2.813,1.864-7,7-7c3.091,0,5.478,0.999,7.093,2.97C41.075,7.608,40.008,13.158,39.961,13.393z"/><path fill="#f283a5" d="M59,50.907v-7c0-2.596-0.842-5.123-2.4-7.2l-2.585-3.447c-0.669-0.892-1.144-1.914-1.395-3.001 l-1.189-5.151c-0.838-3.63-4.07-6.201-7.795-6.201H20.364c-3.725,0-6.957,2.571-7.795,6.201l-1.189,5.151 c-0.251,1.087-0.726,2.109-1.395,3.001L7.4,36.707c-1.558,2.077-2.4,4.604-2.4,7.2v7c0,2.209,1.791,4,4,4l46,0 C57.209,54.907,59,53.116,59,50.907z"/><path fill="#bbdef9" d="M54.875,34.407c-0.669-0.892-2.005-3.061-2.255-4.148l-1.189-5.151 c-0.838-3.63-4.07-6.201-7.795-6.201H20.364c-3.725,0-6.957,2.571-7.795,6.201l-1.189,5.151c-0.251,1.087-1.666,4.131-2.335,5.024 l4.695,1.978h18.775l17.974-0.353L54.875,34.407z"/><path fill="#8b8e98" d="M49,54.907h8v5c0,1.657-1.343,3-3,3h-2c-1.657,0-3-1.343-3-3V54.907z"/><path fill="#ed7899" d="M54,54.907H10c-2.761,0-5-2.239-5-5v-4h54v4C59,52.669,56.761,54.907,54,54.907z"/><path fill="#8b8e98" d="M7,54.907h8v5c0,1.657-1.343,3-3,3h-2c-1.657,0-3-1.343-3-3V54.907z"/><path fill="#ffefb8" d="M14.493 42.49l-9.128-1.521L5 46.907h11c.552 0 1-.448 1-1v-.459C17 43.982 15.94 42.731 14.493 42.49zM58.634 40.968l-9.128 1.521C48.06 42.731 47 43.982 47 45.449v.459c0 .552.448 1 1 1h11L58.634 40.968z"/><path fill="#c2cde7" d="M59 30.907h-6l4 6h2c1.105 0 2-.895 2-2v-2C61 31.803 60.105 30.907 59 30.907zM3 32.907v2c0 1.105.895 2 2 2h2l4-6H5C3.895 30.907 3 31.803 3 32.907z"/><path fill="#def0ff" d="M54.37 34.242c-.736-.98-1.269-2.078-1.584-3.262l-2.135-8.007c-.176-.659-.457-1.265-.792-1.833L34.472 36.528H50.82c.718 0 1.433-.157 2.093-.441l1.624-1.624L54.37 34.242zM41.036 18.701L23.209 36.528h6.562l16.571-16.571c-1.185-.787-2.586-1.256-4.082-1.256H41.036zM14.472 36.528L18.472 36.528 36.067 18.933 32.067 18.933z"/><path fill="#c2cde7" d="M42,29H22c-1.105,0-2-0.895-2-2V15c0-1.105,0.895-2,2-2h20c1.105,0,2,0.895,2,2v12 C44,28.105,43.105,29,42,29z"/><path fill="#acb7d0" d="M44,29H20v-4c0-2.209,1.791-4,4-4h16c2.209,0,4,1.791,4,4V29z"/><g><path fill="#8d6c9f" d="M22 48c.553 0 1-.447 1-1v-2c0-.553-.447-1-1-1s-1 .447-1 1v2C21 47.553 21.447 48 22 48zM27 48c.553 0 1-.447 1-1v-2c0-.553-.447-1-1-1s-1 .447-1 1v2C26 47.553 26.447 48 27 48zM32 48c.553 0 1-.447 1-1v-2c0-.553-.447-1-1-1s-1 .447-1 1v2C31 47.553 31.447 48 32 48zM37 48c.553 0 1-.447 1-1v-2c0-.553-.447-1-1-1s-1 .447-1 1v2C36 47.553 36.447 48 37 48zM42 48c.553 0 1-.447 1-1v-2c0-.553-.447-1-1-1s-1 .447-1 1v2C41 47.553 41.447 48 42 48zM47.167 50h-30.25c-.553 0-1 .447-1 1s.447 1 1 1h30.25c.553 0 1-.447 1-1S47.72 50 47.167 50zM55.167 50h-4.25c-.553 0-1 .447-1 1s.447 1 1 1h4.25c.553 0 1-.447 1-1S55.72 50 55.167 50zM13.167 50h-4.25c-.553 0-1 .447-1 1s.447 1 1 1h4.25c.553 0 1-.447 1-1S13.72 50 13.167 50z"/><path fill="#8d6c9f" d="M63,62h-5.556C57.788,61.409,58,60.732,58,60v-5.024c1.208-0.913,2-2.347,2-3.976v-7 c0-1.045-0.129-2.089-0.379-3.103c0,0,0-0.001,0-0.001c0,0,0-0.001,0-0.001c-0.247-1.004-0.614-1.978-1.09-2.895H59 c1.654,0,3-1.346,3-3v-2c0-1.654-1.346-3-3-3h-5.44l-1.15-5.02c-0.85-3.66-3.8-6.33-7.41-6.87V15c0-1.65-1.35-3-3-3h-1V9 c0-4.963-4.037-9-9-9s-9,4.037-9,9v3h-1c-1.65,0-3,1.35-3,3v3.11c-3.61,0.54-6.56,3.21-7.41,6.87L10.44,30H5c-1.654,0-3,1.346-3,3 v2c0,1.654,1.346,3,3,3h0.469c-0.476,0.918-0.843,1.892-1.09,2.895c0,0,0,0.001,0,0.001c0,0.001,0,0.001,0,0.001 C4.129,41.911,4,42.955,4,44v7c0,1.629,0.792,3.063,2,3.976V60c0,0.732,0.212,1.409,0.556,2H1c-0.553,0-1,0.447-1,1s0.447,1,1,1h9 h2h40h2h9c0.553,0,1-0.447,1-1S63.553,62,63,62z M55,54H9c-1.65,0-3-1.35-3-3v-3h10c1.103,0,2-0.897,2-2v-0.459 c0-1.963-1.405-3.622-3.343-3.945l-7.993-1.332C7.033,39.242,7.545,38.272,8.2,37.4l0.885-1.179l2.131,1.054 C12.176,37.749,13.249,38,14.319,38h35.458c1.06,0,2.124-0.246,3.077-0.712l2.092-1.025L55.8,37.4 c0.655,0.872,1.167,1.842,1.535,2.863l-7.993,1.332C47.405,41.919,46,43.578,46,45.541V46c0,1.103,0.897,2,2,2h10v3 C58,52.65,56.65,54,55,54z M16,56h32v4c0,0.732,0.212,1.409,0.556,2H15.444C15.788,61.409,16,60.732,16,60V56z M6.15,42.205 l8.179,1.363C15.297,43.729,16,44.56,16,45.541V46H6v-2C6,43.397,6.052,42.797,6.15,42.205z M39.142,36 c0.447-1.721,1.999-3,3.858-3s3.411,1.279,3.858,3H39.142z M58,44v2H48v-0.459c0-0.981,0.703-1.812,1.671-1.973l8.179-1.363 C57.948,42.797,58,43.397,58,44z M60,33v2c0,0.552-0.448,1-1,1h-1.75l-2.44-3.25c-0.181-0.239-0.339-0.492-0.486-0.75H59 C59.552,32,60,32.448,60,33z M25,9c0-3.859,3.141-7,7-7s7,3.141,7,7v3h-2V9c0-2.757-2.243-5-5-5s-5,2.243-5,5v3h-2V9z M35,12h-6V9 c0-1.654,1.346-3,3-3s3,1.346,3,3V12z M21,15c0-0.55,0.45-1,1-1h20c0.55,0,1,0.45,1,1v12c0,0.55-0.45,1-1,1H22c-0.55,0-1-0.45-1-1 V15z M13.54,25.43c0.64-2.75,2.79-4.78,5.46-5.29V27c0,1.65,1.35,3,3,3h20c1.65,0,3-1.35,3-3v-6.86c2.67,0.51,4.82,2.54,5.46,5.29 l1.19,5.15c0.28,1.22,0.81,2.36,1.56,3.37l0.514,0.685l-1.749,0.856C51.295,35.824,50.534,36,49.777,36H48.91 c-0.478-2.833-2.942-5-5.91-5s-5.431,2.167-5.91,5H14.319c-0.765,0-1.531-0.18-2.217-0.519l-1.796-0.888l0.483-0.643 c0.75-1.01,1.28-2.15,1.56-3.37L13.54,25.43z M4,35v-2c0-0.552,0.448-1,1-1h4.676c-0.147,0.258-0.305,0.511-0.486,0.75L6.75,36H5 C4.448,36,4,35.552,4,35z M10,62c-1.103,0-2-0.897-2-2v-4h1h5v4c0,1.103-0.897,2-2,2H10z M52,62c-1.103,0-2-0.897-2-2v-4h5h1v4 c0,1.103-0.897,2-2,2H52z"/></g></svg>