<svg xmlns="http://www.w3.org/2000/svg" viewBox="0 0 128 128" width="20px" height="20px"><path fill="#fff" d="M109 94A15 15 0 1 0 109 124 15 15 0 1 0 109 94zM78 124H14c-5.5 0-10-4.5-10-10V14C4 8.5 8.5 4 14 4h54c11 0 20 9 20 20v90C88 119.5 83.5 124 78 124z"/><path fill="#71c2ff" d="M57.1,73.9c0-3.7-1.8-7.1-4.8-9.2L43,58.3c-1.3-1-2.1-2.5-2.1-4.2c0-2.8,2.3-5.1,5.1-5.1c2.1,0,3.9,1.2,4.7,3.1c0.6,1.5,2.4,2.2,3.9,1.6c1.5-0.6,2.2-2.4,1.6-3.9c-1.3-3.2-4-5.5-7.2-6.4V43c0-1.7-1.3-3-3-3s-3,1.3-3,3v0.4c-4.7,1.3-8.1,5.6-8.1,10.7c0,3.6,1.7,6.9,4.7,9l9.3,6.5c1.4,1,2.3,2.5,2.3,4.2c0,2.8-2.3,5.1-5.1,5.1c-2,0-3.9-1.2-4.7-3.1c-0.7-1.5-2.4-2.2-3.9-1.6c-1.5,0.7-2.2,2.4-1.6,3.9c1.4,3.1,4,5.4,7.2,6.3V85c0,1.7,1.3,3,3,3s3-1.3,3-3v-0.4C53.7,83.3,57.1,79,57.1,73.9z"/><path fill="#444b54" d="M58,127H14c-7.2,0-13-5.8-13-13V14C1,6.8,6.8,1,14,1h54c6.2,0,11.9,2.4,16.3,6.8C88.6,12.1,91,17.9,91,24c0,1.7-1.3,3-3,3c0,0,0,0,0,0c-1.7,0-3-1.3-3-3c0-4.5-1.8-8.8-5-12c-3.2-3.2-7.5-5-12-5H14c-3.9,0-7,3.1-7,7v100c0,3.9,3.1,7,7,7h44c1.7,0,3,1.3,3,3S59.7,127,58,127z"/><path fill="#444b54" d="M88 74c-1.7 0-3-1.3-3-3l0-34c0-1.7 1.3-3 3-3 0 0 0 0 0 0 1.7 0 3 1.3 3 3l0 34C91 72.7 89.6 74 88 74 88 74 88 74 88 74zM88 27H78c-7.2 0-13-5.8-13-13l0-10c0-1.7 1.3-3 3-3 1.7 0 3 1.3 3 3l0 10c0 3.9 3.1 7 7 7h10c1.7 0 3 1.3 3 3S89.7 27 88 27z"/><path fill="#fff" d="M88 84A20 20 0 1 0 88 124A20 20 0 1 0 88 84Z"/><path fill="#71c2ff" d="M119.7,94.6c-1.3-1-3.2-0.7-4.2,0.6s-0.7,3.2,0.6,4.2c3.1,2.3,4.8,5.8,4.8,9.6c0,6.6-5.4,12-12,12c-1.6,0-3.2-0.3-4.6-0.9c4.1-4.2,6.6-9.8,6.6-16.1c0-12.7-10.3-23-23-23s-23,10.3-23,23s10.3,23,23,23c4.1,0,7.9-1.1,11.2-2.9c2.8,1.8,6.2,2.9,9.8,2.9c9.9,0,18-8.1,18-18C127,103.3,124.3,97.9,119.7,94.6z M71,104c0-9.4,7.6-17,17-17s17,7.6,17,17s-7.6,17-17,17S71,113.4,71,104z"/></svg>