<svg xmlns="http://www.w3.org/2000/svg" viewBox="0 0 100 100" width="100px" height="100px"><path fill="#c7ede6" d="M88.366,56.546c0.3-0.616,0.566-1.264,0.796-1.943c2.633-7.77-1.349-17.078-9.733-19.325c-0.906-11.384-8.906-19.193-17.941-20.526c-10.341-1.525-19.814,5.044-22.966,15.485c-3.799-1.346-7.501-1.182-10.99,0.857c-1.583,0.732-3.031,1.812-4.33,3.233c-1.907,2.086-3.147,4.719-3.652,7.495c-0.748,0.118-1.483,0.236-2.176,0.484c-4.04,1.449-6.589,4.431-7.288,8.923c-0.435,2.797,0.443,5.587,0.933,6.714c1.935,4.455,6.422,6.98,10.981,6.312c0.227-0.033,0.557,0.069,0.752,0.233c0.241,7.12,3.698,13.417,8.884,17.014c8.321,5.772,19.027,3.994,25.781-3.921c2.894,2.96,6.338,4.398,10.384,3.876c4.023-0.519,7.147-2.739,9.426-6.349c1.053,0.283,2.051,0.691,3.083,0.804c4.042,0.442,7.324-1.165,9.732-4.8c0.922-1.391,1.793-3.194,1.793-6.354C91.836,61.503,90.543,58.536,88.366,56.546z"/><path fill="#fdfcef" d="M40.221,69.633c0,0,10.309,0,10.371,0c2.381,0,4.31-1.93,4.31-4.311c0-2.077-1.469-3.81-3.425-4.219c0.023-0.182,0.038-0.366,0.038-0.554c0-2.466-1.999-4.465-4.464-4.465c-1.456,0-2.745,0.7-3.56,1.778c-0.208-2.745-2.66-4.862-5.528-4.511c-2.097,0.257-3.832,1.878-4.218,3.955c-0.124,0.666-0.111,1.313,0.012,1.92c-0.562-0.606-1.363-0.987-2.254-0.987c-1.632,0-2.963,1.27-3.069,2.875c-0.741-0.164-1.547-0.153-2.396,0.165c-1.622,0.609-2.778,2.137-2.845,3.868c-0.096,2.459,1.869,4.483,4.307,4.483c0.185,0,0.836,0,0.986,0h8.951"/><path fill="#472b29" d="M50.592,70.133H40.221c-0.276,0-0.5-0.224-0.5-0.5s0.224-0.5,0.5-0.5h10.371c2.102,0,3.811-1.709,3.811-3.811c0-1.795-1.273-3.363-3.027-3.729c-0.254-0.053-0.426-0.292-0.394-0.551c0.02-0.161,0.034-0.325,0.034-0.492c0-2.187-1.778-3.965-3.964-3.965c-1.25,0-2.402,0.576-3.162,1.58c-0.124,0.165-0.343,0.237-0.539,0.178c-0.2-0.059-0.342-0.234-0.358-0.441c-0.091-1.199-0.677-2.324-1.608-3.089c-0.941-0.772-2.136-1.109-3.36-0.965c-1.884,0.231-3.441,1.69-3.787,3.55c-0.107,0.583-0.104,1.164,0.012,1.729c0.045,0.22-0.062,0.442-0.262,0.545c-0.196,0.103-0.441,0.061-0.595-0.104c-0.495-0.532-1.166-0.826-1.889-0.826c-1.352,0-2.48,1.058-2.569,2.408c-0.01,0.145-0.082,0.279-0.198,0.366c-0.118,0.088-0.27,0.118-0.408,0.089c-0.734-0.161-1.424-0.114-2.112,0.146c-1.45,0.544-2.464,1.918-2.521,3.42c-0.041,1.048,0.336,2.041,1.061,2.795c0.726,0.754,1.701,1.169,2.747,1.169h9.937c0.276,0,0.5,0.224,0.5,0.5s-0.224,0.5-0.5,0.5h-9.937c-1.32,0-2.552-0.524-3.468-1.477c-0.915-0.951-1.391-2.204-1.34-3.526c0.074-1.898,1.348-3.634,3.17-4.316c0.696-0.262,1.417-0.352,2.15-0.273c0.357-1.607,1.798-2.8,3.489-2.8c0.58,0,1.148,0.144,1.656,0.409c0.005-0.311,0.036-0.622,0.095-0.935c0.424-2.283,2.335-4.076,4.648-4.359c1.501-0.187,2.96,0.236,4.115,1.185c0.869,0.713,1.493,1.683,1.791,2.753c0.894-0.776,2.031-1.208,3.243-1.208c2.737,0,4.964,2.228,4.964,4.965c0,0.059-0.001,0.117-0.004,0.176c1.989,0.614,3.391,2.481,3.391,4.597C55.403,67.975,53.245,70.133,50.592,70.133z"/><path fill="#fdfcef" d="M52.338,61.609c-1.498-0.706-3.231-0.206-3.87,1.117c-0.079,0.164-0.138,0.334-0.177,0.506"/><path fill="#472b29" d="M48.29,63.482c-0.019,0-0.037-0.002-0.056-0.006c-0.135-0.031-0.219-0.165-0.188-0.3c0.045-0.194,0.11-0.383,0.197-0.56c0.696-1.443,2.583-1.996,4.2-1.234c0.125,0.06,0.179,0.208,0.12,0.333c-0.06,0.126-0.211,0.176-0.333,0.12c-1.373-0.648-2.959-0.199-3.537,0.999c-0.07,0.144-0.124,0.296-0.159,0.453C48.508,63.404,48.405,63.482,48.29,63.482z"/><path fill="#fff" d="M18.031 48.582H8c-.276 0-.5-.224-.5-.5s.224-.5.5-.5h10.03c.276 0 .5.224.5.5S18.307 48.582 18.031 48.582zM20.912 48.582h-1.446c-.276 0-.5-.224-.5-.5s.224-.5.5-.5h1.446c.276 0 .5.224.5.5S21.189 48.582 20.912 48.582zM24.967 48.582h-2.546c-.276 0-.5-.224-.5-.5s.224-.5.5-.5h2.546c.276 0 .5.224.5.5S25.244 48.582 24.967 48.582zM24.967 50.447H15.35c-.276 0-.5-.224-.5-.5s.224-.5.5-.5h9.617c.276 0 .5.224.5.5S25.244 50.447 24.967 50.447zM13.619 50.447h-.58c-.276 0-.5-.224-.5-.5s.224-.5.5-.5h.58c.276 0 .5.224.5.5S13.895 50.447 13.619 50.447zM11.242 50.447H9.786c-.276 0-.5-.224-.5-.5s.224-.5.5-.5h1.456c.276 0 .5.224.5.5S11.518 50.447 11.242 50.447zM20.378 46.717H15.35c-.276 0-.5-.224-.5-.5s.224-.5.5-.5h5.028c.276 0 .5.224.5.5S20.655 46.717 20.378 46.717zM20.378 44.852H19.12c-.276 0-.5-.224-.5-.5s.224-.5.5-.5h1.258c.276 0 .5.224.5.5S20.655 44.852 20.378 44.852zM17.109 52.312H15.35c-.276 0-.5-.224-.5-.5s.224-.5.5-.5h1.759c.276 0 .5.224.5.5S17.385 52.312 17.109 52.312zM71.209 22.305H61.178c-.276 0-.5-.224-.5-.5s.224-.5.5-.5h10.031c.276 0 .5.224.5.5S71.486 22.305 71.209 22.305zM74.09 22.305h-1.446c-.276 0-.5-.224-.5-.5s.224-.5.5-.5h1.446c.276 0 .5.224.5.5S74.367 22.305 74.09 22.305zM78.145 22.305h-2.546c-.276 0-.5-.224-.5-.5s.224-.5.5-.5h2.546c.276 0 .5.224.5.5S78.421 22.305 78.145 22.305zM76.119 18.576h-9.616c-.276 0-.5-.224-.5-.5s.224-.5.5-.5h9.616c.276 0 .5.224.5.5S76.395 18.576 76.119 18.576zM64.771 18.576h-.58c-.276 0-.5-.224-.5-.5s.224-.5.5-.5h.58c.276 0 .5.224.5.5S65.047 18.576 64.771 18.576zM62.394 18.576h-1.456c-.276 0-.5-.224-.5-.5s.224-.5.5-.5h1.456c.276 0 .5.224.5.5S62.67 18.576 62.394 18.576zM73.556 20.44h-5.027c-.276 0-.5-.224-.5-.5s.224-.5.5-.5h5.027c.276 0 .5.224.5.5S73.832 20.44 73.556 20.44z"/><path fill="#fff" d="M73.556 18.576h-1.258c-.276 0-.5-.224-.5-.5s.224-.5.5-.5h1.258c.276 0 .5.224.5.5S73.832 18.576 73.556 18.576zM67.073 20.44h-1.758c-.276 0-.5-.224-.5-.5s.224-.5.5-.5h1.758c.276 0 .5.224.5.5S67.349 20.44 67.073 20.44z"/><path fill="#fdfcef" d="M73.766,52.407c1.883,0,3.517,0,3.54,0c2.11,0,3.821-1.674,3.821-3.739c0-1.802-1.302-3.305-3.035-3.66c0.02-0.158,0.034-0.317,0.034-0.48c0-2.139-1.772-3.873-3.957-3.873c-1.29,0-2.433,0.607-3.155,1.543c-0.185-2.381-2.358-4.218-4.9-3.913c-1.859,0.223-3.397,1.629-3.739,3.431c-0.11,0.578-0.098,1.139,0.011,1.665c-0.498-0.525-1.208-0.856-1.998-0.856c-1.446,0-2.627,1.102-2.72,2.494c-0.657-0.142-1.371-0.133-2.123,0.143c-1.438,0.528-2.462,1.853-2.522,3.356c-0.085,2.133,1.657,3.889,3.818,3.889c0.164,0,0.741,0,0.874,0h7.934 M67.289,52.407h0.36"/><path fill="#472b29" d="M77.307,52.907h-3.541c-0.276,0-0.5-0.224-0.5-0.5s0.224-0.5,0.5-0.5h3.541c1.831,0,3.32-1.453,3.32-3.239c0-1.524-1.108-2.856-2.636-3.169c-0.255-0.053-0.428-0.293-0.396-0.552c0.017-0.138,0.029-0.276,0.029-0.419c0-1.86-1.551-3.373-3.457-3.373c-1.092,0-2.098,0.491-2.76,1.348c-0.127,0.165-0.339,0.232-0.539,0.174c-0.197-0.06-0.339-0.234-0.354-0.44c-0.079-1.02-0.565-1.944-1.37-2.604c-0.827-0.679-1.886-0.98-2.973-0.853c-1.646,0.197-3.006,1.443-3.307,3.028c-0.095,0.493-0.091,0.988,0.009,1.471c0.046,0.219-0.06,0.441-0.258,0.545c-0.197,0.103-0.439,0.063-0.595-0.1c-0.428-0.451-1.009-0.7-1.635-0.7c-1.17,0-2.146,0.891-2.221,2.028c-0.01,0.146-0.082,0.278-0.198,0.366c-0.116,0.087-0.264,0.122-0.407,0.089c-0.638-0.138-1.24-0.098-1.844,0.125c-1.263,0.463-2.146,1.631-2.195,2.905c-0.035,0.875,0.282,1.708,0.895,2.345c0.635,0.661,1.495,1.024,2.423,1.024h8.808c0.276,0,0.5,0.224,0.5,0.5s-0.224,0.5-0.5,0.5h-8.808c-1.185,0-2.331-0.485-3.144-1.331c-0.803-0.835-1.219-1.928-1.174-3.077c0.066-1.675,1.212-3.204,2.85-3.806c0.611-0.225,1.245-0.307,1.88-0.244c0.345-1.396,1.629-2.425,3.136-2.425c0.493,0,0.977,0.113,1.413,0.323c0.009-0.242,0.037-0.484,0.083-0.726c0.381-2.009,2.096-3.586,4.17-3.834c1.363-0.166,2.686,0.218,3.727,1.071c0.735,0.604,1.271,1.413,1.544,2.305c0.791-0.649,1.787-1.009,2.845-1.009c2.458,0,4.457,1.962,4.457,4.373c0,0.034-0.001,0.068-0.002,0.103c1.765,0.555,3.004,2.188,3.004,4.037C81.627,51.005,79.689,52.907,77.307,52.907z M67.649,52.907h-0.359c-0.276,0-0.5-0.224-0.5-0.5s0.224-0.5,0.5-0.5h0.359c0.276,0,0.5,0.224,0.5,0.5S67.925,52.907,67.649,52.907z"/><path fill="#472b29" d="M75.599 47.104c-.018 0-.036-.002-.055-.006-.135-.03-.22-.164-.189-.299.036-.163.094-.324.169-.479.605-1.226 2.276-1.675 3.722-1.006.126.058.181.206.122.331-.058.126-.209.179-.331.122-1.207-.557-2.578-.208-3.064.773-.058.119-.102.242-.129.368C75.817 47.025 75.714 47.104 75.599 47.104zM70.44 52.907h-1.106c-.276 0-.5-.224-.5-.5s.224-.5.5-.5h1.106c.276 0 .5.224.5.5S70.716 52.907 70.44 52.907z"/><path fill="#cbc9bc" d="M64.5,36.426v-2.932c0-0.412,0.338-0.75,0.75-0.75h0.399c0.412,0,0.75,0.338,0.75,0.75v2.932c0,0.412-0.338,0.75-0.75,0.75H65.25C64.838,37.176,64.5,36.839,64.5,36.426z"/><path fill="#472b29" d="M65.65,37.551H65.25c-0.62,0-1.125-0.505-1.125-1.125v-2.932c0-0.62,0.505-1.125,1.125-1.125h0.399c0.62,0,1.125,0.505,1.125,1.125v2.932C66.775,37.046,66.27,37.551,65.65,37.551z M65.25,33.12c-0.203,0-0.375,0.172-0.375,0.375v2.932c0,0.207,0.168,0.375,0.375,0.375h0.399c0.207,0,0.375-0.168,0.375-0.375v-2.932c0-0.203-0.172-0.375-0.375-0.375H65.25z"/><path fill="#e1e0d8" d="M59.817,72.946H45.126c-2.75,0-5-2.25-5-5v-34.95c0-2.75,2.25-5,5-5h14.691c2.75,0,5,2.25,5,5v34.95C64.817,70.696,62.567,72.946,59.817,72.946z"/><path fill="#472b29" d="M59.817,73.647h-14.69c-3.143,0-5.7-2.558-5.7-5.7v-34.95c0-3.143,2.558-5.7,5.7-5.7h14.69c3.143,0,5.7,2.558,5.7,5.7v34.95C65.517,71.089,62.959,73.647,59.817,73.647z M45.126,28.697c-2.371,0-4.3,1.929-4.3,4.3v34.95c0,2.371,1.929,4.3,4.3,4.3h14.69c2.371,0,4.3-1.929,4.3-4.3v-34.95c0-2.371-1.929-4.3-4.3-4.3H45.126z"/><path fill="#c5def0" d="M62.285 39.392L62.285 65.349 43.292 65.349 43.292 59.651 43.292 53.32 43.292 33.694 59.752 33.694 62.285 33.694z"/><path fill="#472b29" d="M42.975 53.378c-.207 0-.375-.168-.375-.375V33.377c0-.207.168-.375.375-.375h16.461c.207 0 .375.168.375.375s-.168.375-.375.375H43.35v19.251C43.35 53.21 43.182 53.378 42.975 53.378zM61.968 65.408H42.975c-.207 0-.375-.168-.375-.375v-5.698c0-.207.168-.375.375-.375s.375.168.375.375v5.323h18.243V39.076c0-.207.168-.375.375-.375s.375.168.375.375v25.957C62.343 65.24 62.175 65.408 61.968 65.408z"/><path fill="#cbc9bc" d="M52.155 66.932A1.583 1.583 0 1 0 52.155 70.098A1.583 1.583 0 1 0 52.155 66.932Z"/><path fill="#472b29" d="M52.155 70.472c-1.079 0-1.957-.878-1.957-1.957 0-1.08.878-1.958 1.957-1.958 1.08 0 1.958.878 1.958 1.958C54.113 69.594 53.235 70.472 52.155 70.472zM52.155 67.307c-.666 0-1.207.542-1.207 1.208s.541 1.207 1.207 1.207 1.208-.541 1.208-1.207S52.821 67.307 52.155 67.307zM55.004 31.162h-5.065c-.174 0-.317-.142-.317-.317l0 0c0-.174.142-.317.317-.317h5.065c.174 0 .317.142.317.317l0 0C55.32 31.019 55.178 31.162 55.004 31.162zM61.968 35.652c-.207 0-.375-.168-.375-.375v-1.899c0-.207.168-.375.375-.375s.375.168.375.375v1.899C62.343 35.484 62.175 35.652 61.968 35.652zM61.969 36.919c-.05 0-.101-.011-.141-.03-.05-.021-.09-.05-.13-.08-.069-.07-.109-.17-.109-.271 0-.1.04-.189.109-.26.141-.14.391-.14.53 0 .04.03.07.07.08.12.02.05.03.1.03.14 0 .051-.011.101-.021.15-.02.04-.05.08-.09.12C62.159 36.879 62.069 36.919 61.969 36.919zM42.975 58.444c-.207 0-.375-.168-.375-.375v-1.267c0-.207.168-.375.375-.375s.375.168.375.375v1.267C43.35 58.276 43.182 58.444 42.975 58.444z"/><path fill="#fdfcef" d="M45.083,33.378h-2.078l-1.061,5.426c0,0-0.009,0.002-0.01,0.002c0,0.002,0-0.002,0,0l0,0l0,0c-0.006,0.126-0.01,0.26-0.01,0.41v0c0,0.77,0.625,1.4,1.39,1.4h0.241c0.764,0,1.528-0.63,1.528-1.4l0,0c0-0.148,0.005-0.284,0-0.41l0,0V33.378z"/><path fill="#472b29" d="M43.554,40.99h-0.24c-0.973,0-1.765-0.797-1.765-1.775c0-0.154,0.004-0.295,0.01-0.427c0.003-0.048,0.014-0.093,0.032-0.134l1.046-5.349c0.034-0.176,0.188-0.303,0.368-0.303h2.077c0.207,0,0.375,0.168,0.375,0.375v5.428c0.004,0.072,0.003,0.167,0.001,0.268l-0.001,0.142C45.457,40.16,44.568,40.99,43.554,40.99z M42.305,38.903c-0.004,0.098-0.006,0.2-0.006,0.312c0,0.565,0.455,1.025,1.015,1.025h0.24c0.593,0,1.153-0.498,1.153-1.025l0.001-0.152c0.002-0.084,0.003-0.164-0.001-0.239v-5.07h-1.394l-1.002,5.123C42.31,38.884,42.308,38.894,42.305,38.903z"/><path fill="#8889b9" d="M48.06,33.378h-2.978v5.332h0.01c-0.006,0.132-0.01,0.275-0.01,0.431c0,0.81,0.658,1.473,1.463,1.473h0.192c0.776,0,1.323-0.63,1.323-1.4c0-0.148,0.005-0.284,0-0.41l0,0V33.378z"/><path fill="#472b29" d="M46.738,40.99h-0.192c-1.014,0-1.838-0.829-1.838-1.849c0-0.129,0.003-0.248,0.007-0.36c-0.004-0.023-0.007-0.047-0.007-0.071v-5.332c0-0.207,0.168-0.375,0.375-0.375h2.978c0.207,0,0.375,0.168,0.375,0.375v5.428c0.004,0.072,0.003,0.167,0.001,0.268l-0.001,0.142C48.435,40.209,47.69,40.99,46.738,40.99z M45.457,38.626c0.009,0.033,0.012,0.067,0.01,0.103c-0.006,0.127-0.01,0.263-0.01,0.412c0,0.605,0.488,1.099,1.088,1.099h0.192c0.54,0,0.947-0.44,0.947-1.025l0.001-0.152c0.002-0.084,0.003-0.164-0.001-0.239v-5.07h-2.228V38.626z"/><path fill="#fdfcef" d="M51.038,33.378H48.06v5.332h0.01c-0.006,0.132-0.01,0.275-0.01,0.431c0,0.81,0.658,1.473,1.463,1.473h0.192c0.776,0,1.323-0.63,1.323-1.4c0-0.148,0.005-0.284,0-0.41l0,0V33.378z"/><path fill="#472b29" d="M49.715,40.99h-0.192c-1.014,0-1.838-0.829-1.838-1.849c0-0.129,0.003-0.248,0.007-0.36c-0.004-0.023-0.007-0.047-0.007-0.071v-5.332c0-0.207,0.168-0.375,0.375-0.375h2.978c0.207,0,0.375,0.168,0.375,0.375v5.428c0.004,0.072,0.003,0.167,0.001,0.268l-0.001,0.142C51.412,40.209,50.667,40.99,49.715,40.99z M48.435,38.626c0.009,0.033,0.012,0.067,0.01,0.103c-0.006,0.127-0.01,0.263-0.01,0.412c0,0.605,0.488,1.099,1.088,1.099h0.192c0.54,0,0.947-0.44,0.947-1.025l0.001-0.152c0.002-0.084,0.003-0.164-0.001-0.239v-5.07h-2.228V38.626z"/><path fill="#8889b9" d="M54.018,33.378H51.04v5.332h0.01c-0.006,0.132-0.01,0.275-0.01,0.431c0,0.81,0.658,1.473,1.463,1.473h0.192c0.776,0,1.323-0.64,1.323-1.41c0-0.148,0.005-0.274,0-0.4l0,0V33.378z"/><path fill="#472b29" d="M52.695,40.99h-0.191c-1.014,0-1.838-0.829-1.838-1.849c0-0.129,0.003-0.249,0.007-0.362c-0.005-0.022-0.007-0.046-0.007-0.069v-5.332c0-0.207,0.168-0.375,0.375-0.375h2.978c0.207,0,0.375,0.168,0.375,0.375v5.428c0.004,0.072,0.003,0.162,0.001,0.258l-0.001,0.142C54.393,40.205,53.647,40.99,52.695,40.99z M51.415,38.629c0.008,0.031,0.011,0.064,0.01,0.097c-0.006,0.128-0.01,0.265-0.01,0.415c0,0.605,0.488,1.099,1.088,1.099h0.191c0.541,0,0.948-0.445,0.948-1.035l0.001-0.152c0.002-0.08,0.003-0.154-0.001-0.229v-5.07h-2.228V38.629z"/><path fill="#fdfcef" d="M56.995,33.378h-2.978v5.332h0.004c-0.002,0.09-0.004,0.182-0.004,0.281c0,0.893,0.659,1.623,1.465,1.623h0.192c0.777,0,1.323-0.712,1.323-1.56c0-0.094,0-0.163-0.001-0.249l0,0V33.378z"/><path fill="#472b29" d="M55.674,40.99h-0.191c-1.015,0-1.84-0.896-1.84-1.999c0-0.083,0.001-0.161,0.003-0.238c-0.002-0.014-0.003-0.028-0.003-0.043v-5.332c0-0.207,0.168-0.375,0.375-0.375h2.978c0.207,0,0.375,0.168,0.375,0.375l0.002,5.677C57.372,40.139,56.626,40.99,55.674,40.99z M54.393,38.657c0.003,0.021,0.005,0.043,0.004,0.065l-0.004,0.269c0,0.688,0.489,1.249,1.09,1.249h0.191c0.541,0,0.948-0.51,0.948-1.186l-0.002-5.302h-2.228V38.657z"/><path fill="#8889b9" d="M59.973,33.378h-2.978v5.332h0.01c-0.006,0.132-0.01,0.275-0.01,0.431c0,0.81,0.658,1.473,1.463,1.473h0.192c0.776,0,1.323-0.63,1.323-1.4c0-0.148,0.005-0.284,0-0.41l0,0V33.378z"/><path fill="#472b29" d="M58.65,40.99h-0.191c-1.014,0-1.838-0.829-1.838-1.849c0-0.129,0.003-0.249,0.007-0.362c-0.005-0.022-0.007-0.046-0.007-0.069v-5.332c0-0.207,0.168-0.375,0.375-0.375h2.978c0.207,0,0.375,0.168,0.375,0.375v5.428c0.004,0.072,0.003,0.167,0.001,0.268l-0.001,0.142C60.348,40.209,59.602,40.99,58.65,40.99z M57.37,38.629c0.008,0.031,0.011,0.064,0.01,0.097c-0.006,0.128-0.01,0.265-0.01,0.415c0,0.605,0.488,1.099,1.088,1.099h0.191c0.541,0,0.948-0.44,0.948-1.025l0.001-0.152c0.002-0.084,0.003-0.164-0.001-0.239v-5.07H57.37V38.629z"/><path fill="#fdfcef" d="M62.984,38.805L62.984,38.805l-0.949-5.427h-2.062v5.332h0.01c-0.006,0.132-0.01,0.275-0.01,0.431v0c0,0.81,0.658,1.473,1.463,1.473h0.168c0.764,0,1.39-0.63,1.39-1.4v0C62.993,39.066,62.99,38.931,62.984,38.805z"/><path fill="#472b29" d="M61.603,40.99h-0.167c-1.014,0-1.838-0.829-1.838-1.849c0-0.129,0.003-0.249,0.007-0.362c-0.005-0.022-0.007-0.046-0.007-0.069v-5.332c0-0.207,0.168-0.375,0.375-0.375h2.062c0.183,0,0.338,0.131,0.369,0.311l0.948,5.428c0.003,0.016,0.005,0.031,0.006,0.047c0.006,0.132,0.009,0.272,0.009,0.427C63.368,40.193,62.576,40.99,61.603,40.99z M60.348,38.629c0.008,0.031,0.011,0.064,0.01,0.097c-0.006,0.128-0.01,0.265-0.01,0.415c0,0.605,0.488,1.099,1.088,1.099h0.167c0.56,0,1.015-0.46,1.015-1.025c0-0.133-0.002-0.255-0.008-0.368l-0.89-5.094h-1.372V38.629z"/><path fill="#472b29" d="M62.993,39.34H42.105c-0.138,0-0.25-0.112-0.25-0.25s0.112-0.25,0.25-0.25h20.888c0.138,0,0.25,0.112,0.25,0.25S63.13,39.34,62.993,39.34z"/><path fill="#fdfcee" d="M45.121 43.992H59.978V48.233H45.121z"/><path fill="#472b29" d="M59.977,48.557H45.12c-0.18,0-0.325-0.146-0.325-0.325v-4.24c0-0.18,0.146-0.325,0.325-0.325h14.856c0.18,0,0.325,0.146,0.325,0.325v4.24C60.302,48.412,60.157,48.557,59.977,48.557z M45.446,47.907h14.206v-3.59H45.446V47.907z"/><path fill="#88ae45" d="M57.947,60.117H47.151c-1.117,0-2.03-0.914-2.03-2.03V58.04c0-1.117,0.914-2.03,2.03-2.03h10.796c1.117,0,2.03,0.914,2.03,2.03v0.046C59.977,59.203,59.064,60.117,57.947,60.117z"/><path fill="#472b29" d="M57.947 60.416H47.151c-1.285 0-2.33-1.045-2.33-2.33 0-1.332 1.045-2.377 2.33-2.377h10.796c1.285 0 2.33 1.045 2.33 2.33C60.277 59.371 59.232 60.416 57.947 60.416zM47.151 56.309c-.954 0-1.73.776-1.73 1.73 0 1.001.776 1.777 1.73 1.777h10.796c.954 0 1.73-.776 1.73-1.73 0-1.001-.776-1.777-1.73-1.777H47.151zM56.523 50.736H45.12c-.207 0-.375-.168-.375-.375s.168-.375.375-.375h11.402c.207 0 .375.168.375.375S56.73 50.736 56.523 50.736zM51.025 53.236H45.12c-.207 0-.375-.168-.375-.375s.168-.375.375-.375h5.904c.207 0 .375.168.375.375S51.232 53.236 51.025 53.236zM56.126 53.236h-3.681c-.207 0-.375-.168-.375-.375s.168-.375.375-.375h3.681c.207 0 .375.168.375.375S56.333 53.236 56.126 53.236zM59.977 53.236h-2.425c-.207 0-.375-.168-.375-.375s.168-.375.375-.375h2.425c.207 0 .375.168.375.375S60.184 53.236 59.977 53.236zM59.977 50.686h-1.954c-.18 0-.325-.146-.325-.325s.146-.325.325-.325h1.954c.18 0 .325.146.325.325S60.157 50.686 59.977 50.686z"/><path fill="#e1e0d8" d="M59.101,58.654c-0.002,2.933,1.808,5.707,4.921,7.54l0,0c0,1.584-0.462,3.338-1.039,4.454c-0.205,0.396,0.116,0.857,0.559,0.809c2.872-0.315,5.594-1.734,7.04-3.152h1.64c7.247,0,13.121-4.321,13.121-9.651s-5.875-9.651-13.121-9.651S59.101,53.324,59.101,58.654"/><path fill="#472b29" d="M63.48,71.96c-0.347,0-0.674-0.17-0.873-0.46c-0.221-0.32-0.247-0.734-0.068-1.081c0.461-0.894,0.926-2.431,0.979-3.946c-3.131-1.934-4.918-4.77-4.916-7.819c0-5.597,6.11-10.15,13.622-10.15c7.511,0,13.621,4.554,13.621,10.15s-6.11,10.15-13.621,10.15h-1.44c-1.463,1.355-4.195,2.821-7.186,3.149C63.558,71.957,63.519,71.96,63.48,71.96z M72.223,49.503c-6.96,0-12.622,4.104-12.622,9.15l0,0c-0.002,2.768,1.702,5.358,4.675,7.109c0.152,0.09,0.246,0.254,0.246,0.431c0,1.558-0.43,3.396-1.095,4.684l0.061,0.082c2.858-0.313,5.447-1.739,6.744-3.012c0.094-0.092,0.22-0.144,0.351-0.144h1.641c6.959,0,12.621-4.104,12.621-9.15S79.182,49.503,72.223,49.503z M59.101,58.654h0.01H59.101z"/><path fill="#472b29" d="M78.304 55.106h-3.613c-.138 0-.25-.112-.25-.25s.112-.25.25-.25h3.613c.138 0 .25.112.25.25S78.442 55.106 78.304 55.106zM73.085 55.106h-7.628c-.138 0-.25-.112-.25-.25s.112-.25.25-.25h7.628c.138 0 .25.112.25.25S73.223 55.106 73.085 55.106zM79.91 57.515H69.873c-.138 0-.25-.112-.25-.25s.112-.25.25-.25H79.91c.138 0 .25.112.25.25S80.047 57.515 79.91 57.515zM68.268 57.515h-4.817c-.138 0-.25-.112-.25-.25s.112-.25.25-.25h4.817c.138 0 .25.112.25.25S68.406 57.515 68.268 57.515zM75.895 59.923H63.451c-.138 0-.25-.112-.25-.25s.112-.25.25-.25h12.444c.138 0 .25.112.25.25S76.033 59.923 75.895 59.923zM72.624 62.734h-7.167c-.138 0-.25-.112-.25-.25s.112-.25.25-.25h7.167c.138 0 .25.112.25.25S72.762 62.734 72.624 62.734z"/><path fill="#8889b9" d="M79.47 60.421A5.005 5.005 0 1 0 79.47 70.431A5.005 5.005 0 1 0 79.47 60.421Z"/><path fill="#472b29" d="M79.47,70.931c-3.035,0-5.505-2.47-5.505-5.505c0-3.035,2.47-5.505,5.505-5.505s5.505,2.47,5.505,5.505C84.975,68.461,82.505,70.931,79.47,70.931z M79.47,60.921c-2.484,0-4.505,2.021-4.505,4.505c0,2.484,2.021,4.505,4.505,4.505s4.505-2.021,4.505-4.505C83.975,62.942,81.954,60.921,79.47,60.921z"/><path fill="#472b29" d="M80.751,64.214l-0.189,1.577c-0.008,0.058-0.014,0.114-0.017,0.167c-0.003,0.053-0.005,0.103-0.005,0.149c0,0.15,0.062,0.225,0.186,0.225c0.174,0,0.332-0.123,0.475-0.369c0.14-0.242,0.21-0.519,0.21-0.829c0-0.493-0.172-0.896-0.517-1.21c-0.342-0.318-0.78-0.478-1.313-0.478c-0.557,0-1.025,0.19-1.406,0.571c-0.378,0.378-0.568,0.847-0.568,1.406c0,0.308,0.068,0.611,0.204,0.907c0.138,0.278,0.331,0.508,0.58,0.688c0.332,0.24,0.749,0.36,1.249,0.36c0.469,0,0.959-0.119,1.472-0.357l0.045-0.024l0.156,0.433l-0.036,0.018c-0.523,0.252-1.067,0.378-1.634,0.378c-0.627,0-1.151-0.151-1.574-0.454c-0.31-0.22-0.553-0.502-0.727-0.844c-0.172-0.36-0.258-0.727-0.258-1.099c0-0.679,0.239-1.248,0.718-1.709c0.479-0.461,1.069-0.691,1.772-0.691c0.647,0,1.188,0.198,1.625,0.595c0.435,0.392,0.652,0.884,0.652,1.475c0,0.457-0.118,0.848-0.354,1.174c-0.238,0.33-0.518,0.496-0.838,0.496c-0.256,0-0.431-0.121-0.523-0.363c-0.246,0.252-0.521,0.378-0.823,0.378c-0.33,0-0.606-0.119-0.826-0.357c-0.216-0.236-0.324-0.538-0.324-0.904c0-0.394,0.121-0.719,0.363-0.973c0.242-0.26,0.547-0.39,0.913-0.39c0.336,0,0.608,0.13,0.814,0.39l0.042-0.333H80.751z M80.139,65.373c0-0.186-0.063-0.341-0.189-0.466c-0.13-0.124-0.288-0.186-0.475-0.186c-0.202,0-0.367,0.078-0.496,0.234c-0.13,0.154-0.195,0.351-0.195,0.592c0,0.208,0.052,0.379,0.156,0.514c0.104,0.134,0.238,0.201,0.402,0.201c0.21,0,0.395-0.089,0.556-0.267S80.139,65.61,80.139,65.373z"/></svg>