<svg xmlns="http://www.w3.org/2000/svg" viewBox="0 0 100 100" width="100px" height="100px"><path fill="#c7ede6" d="M88.366,56.546c0.3-0.616,0.566-1.264,0.796-1.943c2.633-7.77-1.349-17.078-9.733-19.325c-0.906-11.384-8.906-19.193-17.941-20.526c-10.341-1.525-19.814,5.044-22.966,15.485c-3.799-1.346-7.501-1.182-10.99,0.857c-1.583,0.732-3.031,1.812-4.33,3.233c-1.907,2.086-3.147,4.719-3.652,7.495c-0.748,0.118-1.483,0.236-2.176,0.484c-4.04,1.449-6.589,4.431-7.288,8.923c-0.435,2.797,0.443,5.587,0.933,6.714c1.935,4.455,6.422,6.98,10.981,6.312c0.227-0.033,0.557,0.069,0.752,0.233c0.241,7.12,3.698,13.417,8.884,17.014c8.321,5.772,19.027,3.994,25.781-3.921c2.894,2.96,6.338,4.398,10.384,3.876c4.023-0.519,7.147-2.739,9.426-6.349c1.053,0.283,2.051,0.691,3.083,0.804c4.042,0.442,7.324-1.165,9.732-4.8c0.922-1.391,1.793-3.194,1.793-6.354C91.836,61.503,90.543,58.536,88.366,56.546z"/><path fill="#fdfcef" d="M40.221,69.633c0,0,10.309,0,10.371,0c2.381,0,4.31-1.93,4.31-4.311c0-2.077-1.469-3.81-3.425-4.219c0.023-0.182,0.038-0.366,0.038-0.554c0-2.466-1.999-4.465-4.464-4.465c-1.456,0-2.745,0.7-3.56,1.778c-0.208-2.745-2.66-4.862-5.528-4.511c-2.097,0.257-3.832,1.878-4.218,3.955c-0.124,0.666-0.111,1.313,0.012,1.92c-0.562-0.606-1.363-0.987-2.254-0.987c-1.632,0-2.963,1.27-3.069,2.875c-0.741-0.164-1.547-0.153-2.396,0.165c-1.622,0.609-2.778,2.137-2.845,3.868c-0.096,2.459,1.869,4.483,4.307,4.483c0.185,0,0.836,0,0.986,0h8.951"/><path fill="#472b29" d="M50.592,70.133H40.221c-0.276,0-0.5-0.224-0.5-0.5s0.224-0.5,0.5-0.5h10.371c2.102,0,3.811-1.709,3.811-3.811c0-1.795-1.273-3.363-3.027-3.729c-0.254-0.053-0.426-0.292-0.394-0.551c0.02-0.161,0.034-0.325,0.034-0.492c0-2.187-1.778-3.965-3.965-3.965c-1.249,0-2.401,0.576-3.161,1.58c-0.124,0.165-0.343,0.237-0.539,0.178c-0.2-0.059-0.342-0.234-0.358-0.441c-0.091-1.198-0.677-2.324-1.609-3.088c-0.942-0.773-2.138-1.11-3.359-0.966c-1.884,0.23-3.441,1.69-3.787,3.55c-0.107,0.582-0.104,1.164,0.011,1.729c0.044,0.22-0.062,0.442-0.262,0.545c-0.197,0.103-0.442,0.06-0.595-0.105c-0.494-0.532-1.165-0.826-1.888-0.826c-1.352,0-2.48,1.058-2.569,2.408c-0.01,0.145-0.082,0.279-0.198,0.366c-0.118,0.088-0.27,0.118-0.408,0.089c-0.734-0.161-1.424-0.114-2.112,0.146c-1.45,0.544-2.464,1.918-2.521,3.42c-0.041,1.048,0.336,2.041,1.061,2.795c0.726,0.754,1.7,1.169,2.746,1.169h9.938c0.276,0,0.5,0.224,0.5,0.5s-0.224,0.5-0.5,0.5h-9.938c-1.32,0-2.551-0.524-3.467-1.476c-0.915-0.952-1.391-2.205-1.34-3.527c0.074-1.899,1.348-3.634,3.17-4.316c0.695-0.262,1.417-0.352,2.15-0.273c0.357-1.607,1.798-2.8,3.489-2.8c0.58,0,1.148,0.144,1.656,0.409c0.005-0.311,0.036-0.623,0.095-0.935c0.424-2.283,2.335-4.076,4.648-4.359c1.5-0.187,2.96,0.236,4.115,1.185c0.869,0.713,1.493,1.683,1.791,2.753c0.894-0.776,2.031-1.208,3.242-1.208c2.737,0,4.965,2.228,4.965,4.965c0,0.059-0.001,0.117-0.004,0.176c1.989,0.614,3.391,2.481,3.391,4.597C55.403,67.975,53.245,70.133,50.592,70.133z"/><path fill="#fdfcef" d="M52.338,61.609c-1.498-0.706-3.231-0.206-3.87,1.117c-0.079,0.164-0.138,0.334-0.177,0.506"/><path fill="#472b29" d="M48.291,63.482c-0.019,0-0.037-0.002-0.056-0.006c-0.135-0.031-0.219-0.165-0.188-0.3c0.044-0.193,0.11-0.381,0.195-0.559c0.698-1.443,2.584-1.998,4.202-1.235c0.125,0.06,0.179,0.208,0.12,0.333c-0.06,0.126-0.21,0.176-0.333,0.12c-1.371-0.648-2.96-0.199-3.539,0.999c-0.068,0.145-0.122,0.297-0.157,0.453C48.508,63.404,48.405,63.482,48.291,63.482z"/><path fill="#fff" d="M18.031 48.582H8.001c-.276 0-.5-.224-.5-.5s.224-.5.5-.5h10.03c.276 0 .5.224.5.5S18.307 48.582 18.031 48.582zM20.912 48.582h-1.445c-.276 0-.5-.224-.5-.5s.224-.5.5-.5h1.445c.276 0 .5.224.5.5S21.188 48.582 20.912 48.582zM24.966 48.582H22.42c-.276 0-.5-.224-.5-.5s.224-.5.5-.5h2.546c.276 0 .5.224.5.5S25.243 48.582 24.966 48.582zM24.966 50.447H15.35c-.276 0-.5-.224-.5-.5s.224-.5.5-.5h9.616c.276 0 .5.224.5.5S25.243 50.447 24.966 50.447zM13.619 50.447h-.58c-.276 0-.5-.224-.5-.5s.224-.5.5-.5h.58c.276 0 .5.224.5.5S13.895 50.447 13.619 50.447zM11.242 50.447H9.786c-.276 0-.5-.224-.5-.5s.224-.5.5-.5h1.456c.276 0 .5.224.5.5S11.518 50.447 11.242 50.447zM20.378 46.717H15.35c-.276 0-.5-.224-.5-.5s.224-.5.5-.5h5.027c.276 0 .5.224.5.5S20.654 46.717 20.378 46.717zM20.378 44.852h-1.257c-.276 0-.5-.224-.5-.5s.224-.5.5-.5h1.257c.276 0 .5.224.5.5S20.654 44.852 20.378 44.852zM17.109 52.312H15.35c-.276 0-.5-.224-.5-.5s.224-.5.5-.5h1.759c.276 0 .5.224.5.5S17.385 52.312 17.109 52.312zM71.209 22.305h-10.03c-.276 0-.5-.224-.5-.5s.224-.5.5-.5h10.03c.276 0 .5.224.5.5S71.485 22.305 71.209 22.305zM74.09 22.305h-1.446c-.276 0-.5-.224-.5-.5s.224-.5.5-.5h1.446c.276 0 .5.224.5.5S74.367 22.305 74.09 22.305zM78.144 22.305h-2.545c-.276 0-.5-.224-.5-.5s.224-.5.5-.5h2.545c.276 0 .5.224.5.5S78.42 22.305 78.144 22.305zM76.119 18.576h-9.616c-.276 0-.5-.224-.5-.5s.224-.5.5-.5h9.616c.276 0 .5.224.5.5S76.395 18.576 76.119 18.576zM64.771 18.576h-.58c-.276 0-.5-.224-.5-.5s.224-.5.5-.5h.58c.276 0 .5.224.5.5S65.047 18.576 64.771 18.576zM62.394 18.576h-1.456c-.276 0-.5-.224-.5-.5s.224-.5.5-.5h1.456c.276 0 .5.224.5.5S62.67 18.576 62.394 18.576zM73.556 20.44h-5.028c-.276 0-.5-.224-.5-.5s.224-.5.5-.5h5.028c.276 0 .5.224.5.5S73.833 20.44 73.556 20.44z"/><path fill="#fff" d="M73.556 18.576h-1.258c-.276 0-.5-.224-.5-.5s.224-.5.5-.5h1.258c.276 0 .5.224.5.5S73.833 18.576 73.556 18.576zM67.073 20.44h-1.759c-.276 0-.5-.224-.5-.5s.224-.5.5-.5h1.759c.276 0 .5.224.5.5S67.349 20.44 67.073 20.44z"/><path fill="#fdfcef" d="M66.848,53.167c1.883,0,3.517,0,3.54,0c2.11,0,3.821-1.674,3.821-3.739c0-1.802-1.302-3.305-3.035-3.66c0.02-0.158,0.034-0.317,0.034-0.48c0-2.139-1.772-3.873-3.957-3.873c-1.29,0-2.433,0.607-3.155,1.543c-0.185-2.381-2.358-4.218-4.9-3.913c-1.859,0.223-3.397,1.629-3.739,3.431c-0.11,0.578-0.098,1.139,0.011,1.665c-0.498-0.525-1.208-0.856-1.998-0.856c-1.446,0-2.627,1.102-2.72,2.494c-0.657-0.142-1.371-0.133-2.123,0.143c-1.438,0.528-2.462,1.853-2.522,3.356c-0.085,2.133,1.657,3.889,3.818,3.889c0.164,0,0.741,0,0.874,0h7.934 M60.37,53.167h0.36"/><path fill="#472b29" d="M70.388,53.667h-3.54c-0.276,0-0.5-0.224-0.5-0.5s0.224-0.5,0.5-0.5h3.54c1.831,0,3.32-1.453,3.32-3.239c0-1.524-1.108-2.858-2.636-3.17c-0.255-0.053-0.428-0.293-0.396-0.552c0.017-0.137,0.029-0.276,0.029-0.418c0-1.86-1.551-3.373-3.457-3.373c-1.092,0-2.098,0.491-2.76,1.348c-0.126,0.164-0.343,0.231-0.538,0.174c-0.198-0.06-0.34-0.234-0.355-0.44c-0.079-1.02-0.565-1.944-1.37-2.604c-0.827-0.681-1.882-0.979-2.972-0.853c-1.646,0.197-3.007,1.442-3.308,3.027c-0.094,0.496-0.091,0.991,0.009,1.472c0.046,0.219-0.06,0.441-0.258,0.545c-0.197,0.103-0.439,0.063-0.595-0.1c-0.428-0.451-1.009-0.7-1.635-0.7c-1.169,0-2.145,0.891-2.221,2.027c-0.01,0.146-0.082,0.279-0.198,0.366s-0.263,0.12-0.406,0.089c-0.641-0.138-1.244-0.098-1.845,0.125c-1.262,0.463-2.145,1.631-2.195,2.906c-0.035,0.875,0.282,1.708,0.895,2.345c0.635,0.66,1.495,1.024,2.423,1.024h8.808c0.276,0,0.5,0.224,0.5,0.5s-0.224,0.5-0.5,0.5H49.92c-1.185,0-2.33-0.485-3.144-1.331c-0.803-0.836-1.219-1.929-1.174-3.078c0.068-1.675,1.213-3.204,2.85-3.806c0.61-0.224,1.237-0.304,1.881-0.244c0.344-1.396,1.629-2.424,3.135-2.424c0.493,0,0.977,0.113,1.414,0.323c0.009-0.241,0.036-0.483,0.082-0.726c0.381-2.01,2.097-3.586,4.171-3.834c1.362-0.168,2.685,0.218,3.726,1.071c0.747,0.613,1.278,1.409,1.546,2.302c0.791-0.647,1.786-1.006,2.843-1.006c2.458,0,4.457,1.962,4.457,4.373c0,0.034-0.001,0.067-0.002,0.102c1.765,0.555,3.004,2.188,3.004,4.038C74.709,51.766,72.77,53.667,70.388,53.667z M60.73,53.667h-0.359c-0.276,0-0.5-0.224-0.5-0.5s0.224-0.5,0.5-0.5h0.359c0.276,0,0.5,0.224,0.5,0.5S61.006,53.667,60.73,53.667z"/><path fill="#472b29" d="M68.68 47.865c-.018 0-.036-.002-.055-.006-.135-.03-.22-.164-.189-.299.036-.163.094-.324.169-.479.606-1.224 2.275-1.679 3.723-1.006.125.058.18.206.121.332-.058.125-.206.179-.332.121-1.201-.555-2.575-.21-3.063.774-.058.118-.102.241-.129.367C68.898 47.786 68.795 47.865 68.68 47.865zM63.522 53.667h-1.107c-.276 0-.5-.224-.5-.5s.224-.5.5-.5h1.107c.276 0 .5.224.5.5S63.798 53.667 63.522 53.667z"/><path fill="#cbc9bc" d="M64.5,36.426v-2.932c0-0.412,0.338-0.75,0.75-0.75h0.399c0.412,0,0.75,0.338,0.75,0.75v2.932c0,0.412-0.338,0.75-0.75,0.75H65.25C64.838,37.176,64.5,36.839,64.5,36.426z"/><path fill="#472b29" d="M65.65,37.551h-0.399c-0.62,0-1.125-0.505-1.125-1.125v-2.932c0-0.62,0.505-1.125,1.125-1.125h0.399c0.62,0,1.125,0.505,1.125,1.125v2.932C66.775,37.046,66.27,37.551,65.65,37.551z M65.251,33.12c-0.207,0-0.375,0.168-0.375,0.375v2.932c0,0.207,0.168,0.375,0.375,0.375h0.399c0.207,0,0.375-0.168,0.375-0.375v-2.932c0-0.203-0.172-0.375-0.375-0.375H65.251z"/><path fill="#e1e0d8" d="M59.817,72.946H45.126c-2.75,0-5-2.25-5-5v-34.95c0-2.75,2.25-5,5-5h14.691c2.75,0,5,2.25,5,5v34.95C64.817,70.696,62.567,72.946,59.817,72.946z"/><path fill="#472b29" d="M59.817,73.647h-14.69c-3.143,0-5.7-2.558-5.7-5.7v-34.95c0-3.143,2.558-5.7,5.7-5.7h14.69c3.143,0,5.7,2.558,5.7,5.7v34.95C65.517,71.089,62.96,73.647,59.817,73.647z M45.127,28.697c-2.371,0-4.3,1.929-4.3,4.3v34.95c0,2.371,1.929,4.3,4.3,4.3h14.69c2.371,0,4.3-1.929,4.3-4.3v-34.95c0-2.371-1.929-4.3-4.3-4.3H45.127z"/><path fill="#c5def0" d="M62.285 39.392L62.285 65.349 43.292 65.349 43.292 59.651 43.292 53.32 43.292 33.694 59.752 33.694 62.285 33.694z"/><path fill="#472b29" d="M42.975 53.378c-.207 0-.375-.168-.375-.375V33.377c0-.207.168-.375.375-.375h16.46c.207 0 .375.168.375.375s-.168.375-.375.375H43.35v19.251C43.35 53.21 43.182 53.378 42.975 53.378zM61.968 65.408H42.975c-.207 0-.375-.168-.375-.375v-5.698c0-.207.168-.375.375-.375s.375.168.375.375v5.323h18.243V39.076c0-.207.168-.375.375-.375s.375.168.375.375v25.957C62.343 65.24 62.175 65.408 61.968 65.408z"/><path fill="#cbc9bc" d="M52.155 66.932A1.583 1.583 0 1 0 52.155 70.098A1.583 1.583 0 1 0 52.155 66.932Z"/><path fill="#472b29" d="M52.155 70.472c-1.08 0-1.958-.878-1.958-1.957 0-1.08.878-1.958 1.958-1.958s1.958.878 1.958 1.958C54.113 69.594 53.235 70.472 52.155 70.472zM52.155 67.307c-.666 0-1.208.542-1.208 1.208s.542 1.207 1.208 1.207 1.208-.541 1.208-1.207S52.821 67.307 52.155 67.307zM55.004 31.162h-5.065c-.174 0-.317-.142-.317-.317l0 0c0-.174.142-.317.317-.317h5.065c.174 0 .317.142.317.317l0 0C55.32 31.019 55.178 31.162 55.004 31.162zM61.968 35.652c-.207 0-.375-.168-.375-.375v-1.899c0-.207.168-.375.375-.375s.375.168.375.375v1.899C62.343 35.484 62.175 35.652 61.968 35.652zM61.972 36.919c-.05 0-.1-.011-.149-.03-.04-.021-.08-.04-.12-.08-.07-.07-.11-.17-.11-.271 0-.09.04-.189.11-.26.1-.109.27-.14.41-.08.04.021.09.04.12.08.069.07.109.17.109.26 0 .11-.04.2-.109.271-.04.03-.08.06-.12.08C62.062 36.909 62.012 36.919 61.972 36.919zM42.975 58.444c-.207 0-.375-.168-.375-.375v-1.267c0-.207.168-.375.375-.375s.375.168.375.375v1.267C43.35 58.276 43.182 58.444 42.975 58.444z"/><path fill="#fdfcef" d="M45.083,33.378h-2.078l-1.061,5.426l-0.01,0.002c0,0.002,0-0.002,0,0l0,0l0,0c-0.006,0.126-0.01,0.26-0.01,0.41v0c0,0.77,0.625,1.4,1.39,1.4h0.241c0.764,0,1.528-0.63,1.528-1.4l0,0c0-0.148,0.005-0.284,0-0.41l0,0V33.378z"/><path fill="#472b29" d="M43.554,40.99h-0.24c-0.973,0-1.765-0.797-1.765-1.775c0-0.154,0.004-0.295,0.01-0.427c0.003-0.047,0.014-0.093,0.032-0.134l1.046-5.349c0.034-0.176,0.188-0.303,0.368-0.303h2.077c0.207,0,0.375,0.168,0.375,0.375v5.428c0.004,0.072,0.003,0.167,0.001,0.268l-0.001,0.142C45.458,40.16,44.568,40.99,43.554,40.99z M42.305,38.903c-0.004,0.098-0.006,0.2-0.006,0.312c0,0.565,0.455,1.025,1.015,1.025h0.24c0.593,0,1.153-0.498,1.153-1.025l0.001-0.152c0.002-0.084,0.003-0.164-0.001-0.239v-5.07h-1.394l-1.002,5.123C42.31,38.884,42.308,38.894,42.305,38.903z"/><path fill="#c0d078" d="M48.06,33.378h-2.978v5.332h0.01c-0.006,0.132-0.01,0.275-0.01,0.431c0,0.81,0.658,1.473,1.463,1.473h0.192c0.776,0,1.323-0.63,1.323-1.4c0-0.148,0.005-0.284,0-0.41l0,0V33.378z"/><path fill="#472b29" d="M46.737,40.99h-0.191c-1.014,0-1.838-0.829-1.838-1.849c0-0.129,0.003-0.248,0.007-0.36c-0.004-0.023-0.007-0.047-0.007-0.071v-5.332c0-0.207,0.168-0.375,0.375-0.375h2.978c0.207,0,0.375,0.168,0.375,0.375v5.428c0.004,0.072,0.003,0.167,0.001,0.268l-0.001,0.142C48.435,40.209,47.689,40.99,46.737,40.99z M45.458,38.626c0.009,0.033,0.012,0.067,0.01,0.103c-0.006,0.127-0.01,0.263-0.01,0.412c0,0.605,0.488,1.099,1.088,1.099h0.191c0.541,0,0.948-0.44,0.948-1.025l0.001-0.152c0.002-0.084,0.003-0.164-0.001-0.239v-5.07h-2.228V38.626z"/><path fill="#fdfcef" d="M51.038,33.378H48.06v5.332h0.01c-0.006,0.132-0.01,0.275-0.01,0.431c0,0.81,0.658,1.473,1.463,1.473h0.192c0.776,0,1.323-0.63,1.323-1.4c0-0.148,0.005-0.284,0-0.41l0,0V33.378z"/><path fill="#472b29" d="M49.714,40.99h-0.191c-1.014,0-1.838-0.829-1.838-1.849c0-0.129,0.003-0.248,0.007-0.36c-0.004-0.023-0.007-0.047-0.007-0.071v-5.332c0-0.207,0.168-0.375,0.375-0.375h2.978c0.207,0,0.375,0.168,0.375,0.375v5.428c0.004,0.072,0.003,0.167,0.001,0.268l-0.001,0.142C51.413,40.209,50.667,40.99,49.714,40.99z M48.435,38.626c0.009,0.033,0.012,0.067,0.01,0.103c-0.006,0.127-0.01,0.263-0.01,0.412c0,0.605,0.488,1.099,1.088,1.099h0.191c0.541,0,0.948-0.44,0.948-1.025l0.001-0.152c0.002-0.084,0.003-0.164-0.001-0.239v-5.07h-2.228V38.626z"/><path fill="#c0d078" d="M54.018,33.378H51.04v5.332h0.01c-0.006,0.132-0.01,0.275-0.01,0.431c0,0.81,0.658,1.473,1.463,1.473h0.192c0.776,0,1.323-0.64,1.323-1.41c0-0.148,0.005-0.274,0-0.4l0,0V33.378z"/><path fill="#472b29" d="M52.695,40.99h-0.191c-1.014,0-1.838-0.829-1.838-1.849c0-0.129,0.003-0.249,0.007-0.362c-0.005-0.022-0.007-0.046-0.007-0.069v-5.332c0-0.207,0.168-0.375,0.375-0.375h2.978c0.207,0,0.375,0.168,0.375,0.375v5.428c0.003,0.074,0.002,0.162,0.001,0.258l-0.001,0.142C54.393,40.205,53.647,40.99,52.695,40.99z M51.416,38.629c0.008,0.031,0.011,0.064,0.01,0.097c-0.006,0.128-0.01,0.265-0.01,0.415c0,0.605,0.488,1.099,1.088,1.099h0.191c0.541,0,0.948-0.445,0.948-1.035l0.001-0.151c0.001-0.081,0.002-0.157-0.001-0.233v-5.067h-2.228V38.629z"/><path fill="#fdfcef" d="M56.995,33.378h-2.978v5.332h0.004c-0.002,0.09-0.004,0.182-0.004,0.281c0,0.893,0.659,1.623,1.465,1.623h0.192c0.777,0,1.323-0.712,1.323-1.56c0-0.094,0-0.163-0.001-0.249l0,0V33.378z"/><path fill="#472b29" d="M55.674,40.99h-0.192c-1.014,0-1.839-0.896-1.839-1.999l0.003-0.238c-0.002-0.014-0.003-0.028-0.003-0.043v-5.332c0-0.207,0.168-0.375,0.375-0.375h2.978c0.207,0,0.375,0.168,0.375,0.375l0.001,5.608C57.372,40.139,56.627,40.99,55.674,40.99z M54.393,38.663c0.002,0.018,0.003,0.036,0.003,0.054l-0.003,0.273c0,0.688,0.488,1.249,1.089,1.249h0.192c0.54,0,0.947-0.51,0.947-1.186l-0.001-5.302h-2.228V38.663z"/><path fill="#c0d078" d="M59.973,33.378h-2.978v5.332h0.01c-0.006,0.132-0.01,0.275-0.01,0.431c0,0.81,0.658,1.473,1.463,1.473h0.192c0.776,0,1.323-0.63,1.323-1.4c0-0.148,0.005-0.284,0-0.41l0,0V33.378z"/><path fill="#472b29" d="M58.65,40.99h-0.191c-1.014,0-1.838-0.829-1.838-1.849c0-0.129,0.003-0.249,0.007-0.362c-0.005-0.022-0.007-0.046-0.007-0.069v-5.332c0-0.207,0.168-0.375,0.375-0.375h2.978c0.207,0,0.375,0.168,0.375,0.375v5.428c0.003,0.074,0.002,0.168,0.001,0.267l-0.001,0.143C60.348,40.209,59.602,40.99,58.65,40.99z M57.371,38.629c0.008,0.031,0.011,0.064,0.01,0.097c-0.006,0.128-0.01,0.265-0.01,0.415c0,0.605,0.488,1.099,1.088,1.099h0.191c0.541,0,0.948-0.44,0.948-1.025l0.001-0.151c0.001-0.086,0.002-0.166-0.001-0.243v-5.067h-2.228V38.629z"/><path fill="#fdfcef" d="M62.984,38.805L62.984,38.805l-0.949-5.427h-2.062v5.332h0.01c-0.006,0.132-0.01,0.275-0.01,0.431v0c0,0.81,0.658,1.473,1.463,1.473h0.168c0.764,0,1.39-0.63,1.39-1.4v0C62.993,39.066,62.99,38.931,62.984,38.805z"/><path fill="#472b29" d="M61.603,40.99h-0.167c-1.014,0-1.838-0.829-1.838-1.849c0-0.129,0.003-0.249,0.007-0.362c-0.005-0.022-0.007-0.046-0.007-0.069v-5.332c0-0.207,0.168-0.375,0.375-0.375h2.062c0.183,0,0.338,0.131,0.369,0.311l0.949,5.428c0.003,0.016,0.005,0.031,0.006,0.047c0.006,0.132,0.009,0.272,0.009,0.427C63.368,40.193,62.576,40.99,61.603,40.99z M60.348,38.629c0.008,0.031,0.011,0.064,0.01,0.097c-0.006,0.128-0.01,0.265-0.01,0.415c0,0.605,0.488,1.099,1.088,1.099h0.167c0.56,0,1.015-0.46,1.015-1.025c0-0.133-0.002-0.255-0.008-0.368l-0.891-5.094h-1.371V38.629z"/><path fill="#472b29" d="M62.993,39.34H42.105c-0.138,0-0.25-0.112-0.25-0.25s0.112-0.25,0.25-0.25h20.888c0.138,0,0.25,0.112,0.25,0.25S63.13,39.34,62.993,39.34z"/><path fill="#fdfcee" d="M45.102 43.773H59.958999999999996V48.014H45.102z"/><path fill="#472b29" d="M59.959,48.339H45.102c-0.18,0-0.325-0.146-0.325-0.325v-4.24c0-0.18,0.146-0.325,0.325-0.325h14.856c0.18,0,0.325,0.146,0.325,0.325v4.24C60.284,48.194,60.138,48.339,59.959,48.339z M45.427,47.689h14.206v-3.59H45.427V47.689z"/><path fill="#fdfcee" d="M45.102 49.826H59.958999999999996V54.067H45.102z"/><path fill="#472b29" d="M59.959,54.392H45.102c-0.18,0-0.325-0.146-0.325-0.325v-4.241c0-0.18,0.146-0.325,0.325-0.325h14.856c0.18,0,0.325,0.146,0.325,0.325v4.241C60.284,54.246,60.138,54.392,59.959,54.392z M45.427,53.742h14.206v-3.591H45.427V53.742z"/><path fill="#472b29" d="M49.41 51.252c.02.009.044.025.07.047l.004.01c.02.025.038.053.053.084.015.032.022.061.022.087 0 .045-.02.085-.061.121l-.492.33.492.326-.013-.01c.053.027.079.066.079.118 0 .022-.009.048-.025.077-.016.029-.034.054-.055.074l-.004.021c-.026.022-.05.037-.07.044-.02.007-.044.01-.07.01-.056 0-.097-.015-.123-.044l-.29-.188v.353c0 .025-.009.048-.026.069-.018.021-.04.039-.066.054-.026.014-.056.025-.088.033-.032.008-.063.012-.092.012h-.018c-.07 0-.116-.014-.138-.04-.022-.027-.036-.06-.042-.098v-.367l-.281.185c-.041.031-.084.047-.128.047-.023 0-.049-.005-.077-.015-.028-.01-.05-.028-.068-.052L47.9 52.526c-.018-.02-.033-.047-.046-.081-.013-.034-.02-.062-.02-.087 0-.047.019-.085.057-.114l.483-.319-.483-.323c-.038-.031-.057-.068-.057-.111 0-.056.026-.11.079-.161l.013-.014c.02-.018.04-.03.06-.037.019-.007.04-.01.063-.01.02 0 .042.003.064.009.022.005.043.016.064.032l.29.192v-.326c0-.049.029-.089.09-.118.06-.029.122-.044.187-.044h.013c.068 0 .112.012.134.037.022.025.036.056.042.094l-.004.326.29-.192-.009.007c.041-.031.085-.047.132-.047C49.366 51.238 49.39 51.243 49.41 51.252zM51.965 51.252c.02.009.044.025.07.047l.004.01c.02.025.038.053.053.084.015.032.022.061.022.087 0 .045-.02.085-.061.121l-.492.33.492.326-.013-.01c.053.027.079.066.079.118 0 .022-.009.048-.025.077-.016.029-.034.054-.055.074l-.004.021c-.026.022-.05.037-.07.044-.02.007-.044.01-.07.01-.056 0-.097-.015-.123-.044l-.29-.188v.353c0 .025-.009.048-.026.069-.018.021-.04.039-.066.054-.026.014-.056.025-.088.033-.032.008-.063.012-.092.012h-.018c-.07 0-.116-.014-.138-.04-.022-.027-.036-.06-.042-.098v-.367L50.73 52.56c-.041.031-.084.047-.128.047-.023 0-.049-.005-.077-.015-.028-.01-.05-.028-.068-.052l-.004-.014c-.018-.02-.033-.047-.046-.081-.013-.034-.02-.062-.02-.087 0-.047.019-.085.057-.114l.483-.319-.483-.323c-.038-.031-.057-.068-.057-.111 0-.056.026-.11.079-.161l.013-.014c.02-.018.04-.03.06-.037.019-.007.04-.01.063-.01.02 0 .042.003.064.009.022.005.043.016.064.032l.29.192v-.326c0-.049.029-.089.09-.118s.122-.044.187-.044h.013c.068 0 .112.012.134.037.022.025.036.056.042.094l-.004.326.29-.192-.009.007c.041-.031.085-.047.132-.047C51.921 51.238 51.944 51.243 51.965 51.252zM54.519 51.252c.02.009.044.025.07.047l.004.01c.02.025.038.053.053.084.015.032.022.061.022.087 0 .045-.02.085-.061.121l-.492.33.492.326-.013-.01c.053.027.079.066.079.118 0 .022-.009.048-.025.077-.016.029-.034.054-.055.074l-.004.021c-.026.022-.05.037-.07.044-.02.007-.044.01-.07.01-.056 0-.097-.015-.123-.044l-.29-.188v.353c0 .025-.009.048-.026.069-.018.021-.04.039-.066.054-.026.014-.056.025-.088.033-.032.008-.063.012-.092.012h-.018c-.07 0-.116-.014-.138-.04-.022-.027-.036-.06-.042-.098v-.367l-.281.185c-.041.031-.084.047-.128.047-.023 0-.049-.005-.077-.015-.028-.01-.05-.028-.068-.052l-.004-.014c-.018-.02-.033-.047-.046-.081-.013-.034-.02-.062-.02-.087 0-.047.019-.085.057-.114l.483-.319-.483-.323c-.038-.031-.057-.068-.057-.111 0-.056.026-.11.079-.161l.013-.014c.02-.018.04-.03.06-.037.019-.007.04-.01.063-.01.02 0 .042.003.064.009.022.005.043.016.064.032l.29.192v-.326c0-.049.029-.089.09-.118s.122-.044.187-.044h.013c.068 0 .112.012.134.037s.036.056.042.094l-.004.326.29-.192-.009.007c.041-.031.085-.047.132-.047C54.475 51.238 54.499 51.243 54.519 51.252zM57.073 51.252c.02.009.044.025.07.047l.004.01c.02.025.038.053.053.084.015.032.022.061.022.087 0 .045-.02.085-.061.121l-.492.33.492.326-.013-.01c.053.027.079.066.079.118 0 .022-.009.048-.025.077-.016.029-.034.054-.055.074l-.004.021c-.026.022-.05.037-.07.044-.02.007-.044.01-.07.01-.056 0-.097-.015-.123-.044l-.29-.188v.353c0 .025-.009.048-.026.069-.018.021-.04.039-.066.054-.026.014-.056.025-.088.033-.032.008-.063.012-.092.012H56.3c-.07 0-.116-.014-.138-.04-.022-.027-.036-.06-.042-.098v-.367l-.281.185c-.041.031-.084.047-.128.047-.023 0-.049-.005-.077-.015-.028-.01-.05-.028-.068-.052l-.004-.014c-.018-.02-.033-.047-.046-.081-.013-.034-.02-.062-.02-.087 0-.047.019-.085.057-.114l.483-.319-.483-.323c-.038-.031-.057-.068-.057-.111 0-.056.026-.11.079-.161l.013-.014c.02-.018.04-.03.06-.037.019-.007.04-.01.063-.01.02 0 .042.003.064.009.022.005.043.016.064.032l.29.192v-.326c0-.049.029-.089.09-.118.06-.029.122-.044.187-.044h.013c.068 0 .112.012.134.037.022.025.036.056.042.094L56.59 51.47l.29-.192-.009.007c.041-.031.085-.047.132-.047C57.029 51.238 57.053 51.243 57.073 51.252z"/><path fill="#88ae45" d="M57.928,60.898H47.132c-1.117,0-2.03-0.914-2.03-2.03v-0.046c0-1.117,0.914-2.03,2.03-2.03h10.796c1.117,0,2.03,0.914,2.03,2.03v0.046C59.959,59.985,59.045,60.898,57.928,60.898z"/><path fill="#472b29" d="M57.928,61.199H47.132c-1.285,0-2.33-1.045-2.33-2.33c0-1.332,1.045-2.377,2.33-2.377h10.796c1.285,0,2.33,1.045,2.33,2.33C60.258,60.154,59.213,61.199,57.928,61.199z M47.132,57.091c-0.954,0-1.73,0.776-1.73,1.73c0,1.001,0.776,1.777,1.73,1.777h10.796c0.954,0,1.73-0.776,1.73-1.73c0-1.001-0.776-1.777-1.73-1.777H47.132z"/><path fill="#c0d078" d="M74.392,62.771v-5.099c0-2.795-2.681-5.01-5.425-5.01c-2.75,0-5.628,2.265-5.628,5.06v5.048h1.95v-4.984c0-1.659,1.906-2.998,3.489-2.998c1.58,0,3.337,1.312,3.337,2.968v5.015H74.392z"/><path fill="#472b29" d="M74.767,63.146h-3.025v-5.39c0-1.46-1.592-2.593-2.962-2.593c-1.402,0-3.114,1.21-3.114,2.623v5.359h-2.7v-5.423c0-3.111,3.169-5.436,6.002-5.436c3.09,0,5.8,2.517,5.8,5.385V63.146z M72.492,62.396h1.525v-4.724c0-2.469-2.359-4.635-5.05-4.635c-2.429,0-5.252,2.047-5.252,4.686v4.673h1.2v-4.609c0-1.899,2.077-3.373,3.864-3.373c1.752,0,3.712,1.43,3.712,3.343V62.396z"/><path fill="#472b29" d="M74.392,63.271c-0.276,0-0.5-0.224-0.5-0.5v-5.099c0-2.402-2.302-4.51-4.925-4.51c-2.371,0-5.127,1.992-5.127,4.561v5.048c0,0.276-0.224,0.5-0.5,0.5s-0.5-0.224-0.5-0.5v-5.048c0-3.183,3.234-5.561,6.127-5.561c3.156,0,5.925,2.574,5.925,5.51v5.099C74.892,63.047,74.669,63.271,74.392,63.271z"/><path fill="#88ae45" d="M72.806,74.799h-8.204c-2.75,0-5-2.25-5-5v-6.768c0-1.037,0.848-1.885,1.885-1.885h14.434c1.037,0,1.885,0.848,1.885,1.885v6.768C77.806,72.549,75.556,74.799,72.806,74.799z"/><path fill="#472b29" d="M72.805,75.298h-8.203c-3.032,0-5.5-2.468-5.5-5.5v-6.768c0-1.315,1.069-2.385,2.385-2.385H75.92c1.315,0,2.385,1.069,2.385,2.385v6.768C78.305,72.83,75.837,75.298,72.805,75.298z M61.487,61.646c-0.764,0-1.385,0.621-1.385,1.385v6.768c0,2.481,2.019,4.5,4.5,4.5h8.203c2.481,0,4.5-2.019,4.5-4.5v-6.768c0-0.764-0.621-1.385-1.385-1.385H61.487z"/><path fill="#f1bc19" d="M59.927 63.584H77.481V66.51H59.927z"/><path fill="#472b29" d="M77.805 66.759H59.602c-.138 0-.25-.112-.25-.25s.112-.25.25-.25h18.203c.138 0 .25.112.25.25S77.943 66.759 77.805 66.759zM72.117 63.833H59.602c-.138 0-.25-.112-.25-.25s.112-.25.25-.25h12.515c.138 0 .25.112.25.25S72.254 63.833 72.117 63.833zM75.693 63.833h-2.275c-.138 0-.25-.112-.25-.25s.112-.25.25-.25h2.275c.138 0 .25.112.25.25S75.831 63.833 75.693 63.833zM77.643 63.833h-.976c-.138 0-.25-.112-.25-.25s.112-.25.25-.25h.976c.138 0 .25.112.25.25S77.781 63.833 77.643 63.833z"/><path fill="#472b29" d="M59.602 66.105c-.025 0-.05-.008-.072-.022-.056-.04-.069-.118-.03-.175l1.688-2.407c.04-.057.117-.068.175-.03.056.04.069.118.03.175l-1.688 2.407C59.68 66.086 59.641 66.105 59.602 66.105zM62.122 66.498c-.025 0-.05-.008-.072-.022-.056-.04-.069-.118-.03-.175l1.95-2.779c.04-.058.117-.067.175-.03.056.04.069.118.03.175l-1.95 2.779C62.2 66.48 62.161 66.498 62.122 66.498zM64.613 66.498c-.025 0-.05-.008-.072-.022-.056-.04-.069-.118-.03-.175l1.951-2.779c.04-.058.117-.067.175-.03.056.04.069.118.03.175l-1.951 2.779C64.691 66.48 64.652 66.498 64.613 66.498zM67.105 66.498c-.025 0-.05-.008-.072-.022-.056-.04-.069-.118-.03-.175l1.951-2.779c.04-.058.118-.067.175-.03.056.04.069.118.03.175l-1.951 2.779C67.183 66.48 67.144 66.498 67.105 66.498zM69.597 66.498c-.025 0-.05-.008-.072-.022-.056-.04-.069-.118-.03-.175l1.951-2.779c.04-.058.117-.067.175-.03.056.04.069.118.03.175L69.7 66.446C69.675 66.48 69.636 66.498 69.597 66.498zM72.089 66.498c-.025 0-.05-.008-.072-.022-.056-.04-.069-.118-.03-.175l1.951-2.779c.04-.058.117-.067.175-.03.056.04.069.118.03.175l-1.951 2.779C72.168 66.48 72.129 66.498 72.089 66.498zM74.582 66.498c-.025 0-.05-.008-.072-.022-.056-.04-.069-.118-.03-.175l1.951-2.779c.04-.058.118-.067.175-.03.056.04.069.118.03.175l-1.951 2.779C74.66 66.48 74.621 66.498 74.582 66.498z"/><path fill="#6f913d" d="M69.72,72.361l-0.562-1.877c-0.039-0.107-0.107-0.198-0.011-0.259c0.292-0.184,0.463-0.541,0.363-0.93c-0.072-0.282-0.302-0.514-0.584-0.588c-0.561-0.148-1.066,0.273-1.066,0.811c0,0.296,0.154,0.555,0.385,0.704c0.1,0.064,0.066,0.138,0.025,0.249l-0.593,1.891H69.72z"/><path fill="#472b29" d="M69.719 72.636h-2.042c-.088 0-.17-.042-.222-.112-.052-.071-.067-.162-.041-.245l.593-1.89c-.267-.211-.423-.529-.423-.872 0-.349.159-.671.436-.884.275-.213.632-.283.976-.192.377.099.684.407.78.785.111.437-.031.872-.366 1.147.004.009.006.016.007.017l.566 1.892c.024.084.009.174-.043.243C69.888 72.595 69.806 72.636 69.719 72.636zM68.051 72.085h1.299l-.456-1.522c-.144-.333-.021-.491.104-.57.212-.134.308-.381.244-.63-.047-.185-.203-.342-.388-.391-.18-.047-.357-.013-.499.097-.141.107-.221.271-.221.448 0 .191.097.368.259.473.281.18.178.457.14.562L68.051 72.085zM68.096 70.453C68.096 70.453 68.096 70.453 68.096 70.453S68.096 70.453 68.096 70.453zM60.788 66.572c-.025 0-.05-.008-.072-.022-.056-.04-.069-.118-.03-.175l1.95-2.78c.04-.056.116-.068.175-.03.056.04.069.118.03.175l-1.95 2.78C60.866 66.553 60.827 66.572 60.788 66.572zM63.34 66.572c-.025 0-.05-.008-.072-.022-.056-.04-.069-.118-.03-.175l1.95-2.78c.039-.056.116-.068.175-.03.056.04.069.118.03.175l-1.95 2.78C63.419 66.553 63.379 66.572 63.34 66.572zM65.829 66.498c-.025 0-.05-.008-.072-.022-.056-.04-.069-.118-.03-.175l1.95-2.779c.04-.058.117-.067.175-.03.056.04.069.118.03.175l-1.95 2.779C65.907 66.48 65.868 66.498 65.829 66.498zM68.257 66.572c-.025 0-.05-.008-.072-.022-.056-.04-.069-.118-.03-.175l1.951-2.78c.04-.057.117-.068.175-.03.056.04.069.118.03.175l-1.951 2.78C68.336 66.553 68.296 66.572 68.257 66.572zM70.856 66.572c-.025 0-.05-.008-.072-.022-.056-.04-.069-.118-.03-.175l1.95-2.78c.039-.056.116-.068.175-.03.056.04.069.118.03.175l-1.95 2.78C70.934 66.553 70.895 66.572 70.856 66.572zM73.254 66.634c-.025 0-.05-.008-.072-.022-.056-.04-.069-.118-.03-.175l1.95-2.78c.04-.057.116-.069.175-.03.056.04.069.118.03.175l-1.95 2.78C73.333 66.616 73.294 66.634 73.254 66.634zM75.766 66.634c-.025 0-.05-.008-.072-.022-.056-.04-.069-.118-.03-.175l1.95-2.78c.039-.057.115-.069.175-.03.056.04.069.118.03.175l-1.95 2.78C75.844 66.616 75.805 66.634 75.766 66.634z"/></svg>