<svg xmlns="http://www.w3.org/2000/svg" viewBox="0 0 64 64" width="100px" height="100px"><linearGradient id="8JoUAcuSH_w6j8v9scDfSa" x1="11" x2="11" y1="30.75" y2="50.27" gradientUnits="userSpaceOnUse" spreadMethod="reflect"><stop offset="0" stop-color="#6dc7ff"/><stop offset="1" stop-color="#e6abff"/></linearGradient><path fill="url(#8JoUAcuSH_w6j8v9scDfSa)" d="M8 31H14V50H8z"/><linearGradient id="8JoUAcuSH_w6j8v9scDfSb" x1="36.001" x2="36.001" y1="5.251" y2="27.399" gradientUnits="userSpaceOnUse" spreadMethod="reflect"><stop offset="0" stop-color="#6dc7ff"/><stop offset="1" stop-color="#e6abff"/></linearGradient><path fill="url(#8JoUAcuSH_w6j8v9scDfSb)" d="M27.767,26.73c-2.428-2.291-3.766-5.392-3.766-8.729c0-6.617,5.383-12,12-12s12,5.383,12,12 c0,3.288-1.372,6.469-3.765,8.728l-1.373-1.455c2.023-1.909,3.138-4.492,3.138-7.272c0-5.514-4.486-10-10-10s-10,4.486-10,10 c0,2.781,1.114,5.365,3.139,7.274L27.767,26.73z"/><linearGradient id="8JoUAcuSH_w6j8v9scDfSc" x1="32" x2="32" y1="9.624" y2="58.334" gradientUnits="userSpaceOnUse" spreadMethod="reflect"><stop offset="0" stop-color="#1a6dff"/><stop offset="1" stop-color="#c822ff"/></linearGradient><path fill="url(#8JoUAcuSH_w6j8v9scDfSc)" d="M56.428,38.815c-0.937-0.695-2.188-0.896-3.435-0.55l-15.29,4.227 C37.891,42.028,38,41.522,38,40.991c0-2.2-1.794-3.991-3.999-3.991h-9.377c-0.667-1-2.363-4-4.623-4H16v-0.999 C16,30.347,14.654,29,13,29H9c-1.654,0-3,1.347-3,3.001v17C6,50.655,7.346,52,9,52h4c1.654,0,3-1.345,3-2.999v-0.753l12.14,8.201 c1.524,1.031,3.297,1.55,5.075,1.55c1.641,0,3.286-0.441,4.742-1.33l18.172-11.101C57.283,44.864,58,43.587,58,42.233v-0.312 C58,40.688,57.427,39.556,56.428,38.815z M14,49.001C14,49.553,13.552,50,13,50h-1v-4h-2v4H9c-0.552,0-1-0.447-1-0.999v-17 C8,31.449,8.448,31,9,31h4c0.552,0,1,0.449,1,1.001V49.001z M56,42.233c0,0.66-0.35,1.284-0.913,1.628L36.915,54.962 c-2.367,1.443-5.37,1.376-7.655-0.17L16,45.833V35h4.001c1.06,0,2.469,2.034,3.088,3.409L23.354,39h10.646 C35.104,39,36,39.892,36,40.988C36,42.098,35.104,43,34.001,43H29h-5v2h5h5.001h2l17.525-4.807c0.637-0.18,1.278-0.094,1.71,0.228 C55.722,40.781,56,41.328,56,41.922V42.233z"/><linearGradient id="8JoUAcuSH_w6j8v9scDfSd" x1="36.004" x2="36.004" y1="9.626" y2="58.332" gradientUnits="userSpaceOnUse" spreadMethod="reflect"><stop offset="0" stop-color="#1a6dff"/><stop offset="1" stop-color="#c822ff"/></linearGradient><path fill="url(#8JoUAcuSH_w6j8v9scDfSd)" d="M33,25.394v6.607C33,33.655,34.347,35,36.001,35H38h1h4v-2h-4v-2h2v-2h-2v-3.577 c3.02-1.186,5-4.079,5-7.422c0-2.398-1.063-4.649-2.915-6.177c-1.85-1.524-4.283-2.134-6.683-1.668 c-3.155,0.614-5.671,3.153-6.261,6.318C27.39,20.523,29.933,24.041,33,25.394z M30.108,16.84c0.44-2.364,2.319-4.262,4.677-4.721 c1.802-0.356,3.639,0.104,5.028,1.249S42,16.202,42,18.001c0,2.702-1.719,5.011-4.276,5.745L37,23.954V33h-0.999 C35.449,33,35,32.553,35,32.001v-8.02l-0.689-0.225C31.822,22.943,29.509,20.067,30.108,16.84z"/><linearGradient id="8JoUAcuSH_w6j8v9scDfSe" x1="36.001" x2="36.001" y1="9.626" y2="58.334" gradientUnits="userSpaceOnUse" spreadMethod="reflect"><stop offset="0" stop-color="#1a6dff"/><stop offset="1" stop-color="#c822ff"/></linearGradient><path fill="url(#8JoUAcuSH_w6j8v9scDfSe)" d="M36.001,22.001c2.206,0,4-1.794,4-4s-1.794-4-4-4s-4,1.794-4,4S33.795,22.001,36.001,22.001z M36.001,16.001c1.103,0,2,0.897,2,2s-0.897,2-2,2s-2-0.897-2-2S34.898,16.001,36.001,16.001z"/><linearGradient id="8JoUAcuSH_w6j8v9scDfSf" x1="36.001" x2="36.001" y1="15.876" y2="20.251" gradientUnits="userSpaceOnUse" spreadMethod="reflect"><stop offset="0" stop-color="#6dc7ff"/><stop offset="1" stop-color="#e6abff"/></linearGradient><path fill="url(#8JoUAcuSH_w6j8v9scDfSf)" d="M36.001 16.001A2 2 0 1 0 36.001 20.001A2 2 0 1 0 36.001 16.001Z"/></svg>