<svg xmlns="http://www.w3.org/2000/svg" viewBox="0 0 80 80" width="100px" height="100px"><path fill="#a16a4a" d="M26 4H28V54H26z"/><path fill="#ffc49c" d="M11.262,67.5c-0.787-1.178-4.632-7.41-4.759-17.015l64.997-1.97v1.014 c-5.586,0.435-6.688,4.177-7.853,8.134c-0.969,3.294-2.066,7.022-5.812,9.837H11.262z"/><path fill="#a16a4a" d="M71,49.031v0.043c-5.527,0.617-6.648,4.427-7.832,8.448c-0.982,3.335-1.995,6.78-5.502,9.478 H11.531c-0.982-1.527-4.286-7.295-4.518-16.03L71,49.031 M72,48L6,50c0,11.25,5,18,5,18h47c8.823-6.473,3.698-17.563,14-18V48 L72,48z"/><path fill="#f78f8f" d="M26.5,4.5H29c4.434,0,8.3,1.851,11.407,3.337c1.038,0.497,1.958,0.938,2.766,1.24 c-1.079,0.282-2.159,0.416-3.309,0.416c-1.04,0-2.049-0.107-3.025-0.212c-0.988-0.105-2.011-0.215-3.075-0.215 c-2.513,0-4.784,0.638-7.264,2.053V4.5z"/><path fill="#c74343" d="M29,5c4.32,0,8.129,1.823,11.19,3.288c0.449,0.215,0.877,0.419,1.284,0.608 c-0.526,0.066-1.06,0.098-1.611,0.098c-1.013,0-1.965-0.102-2.972-0.209c-1.002-0.107-2.037-0.218-3.129-0.218 c-2.349,0-4.489,0.535-6.763,1.711V5H29 M29,4c-2.527,0-3,0-3,0v8c3.14-1.957,5.56-2.433,7.763-2.433 c2.086,0,3.977,0.427,6.101,0.427C41.4,9.993,43.058,9.77,45,9C42.242,8.957,36.297,4,29,4L29,4z"/><path fill="#c2e8ff" d="M26.867,46.476c8.039-14.797,2.026-29.656,0.104-33.672c5.593,1.729,30.813,10.703,34.447,32.712 L26.867,46.476z"/><path fill="#7496c4" d="M27.895,13.626c7.045,2.347,29.224,11.261,32.931,31.406l-33.118,0.92 C34.696,32.291,30.131,18.733,27.895,13.626 M26,12c0,0,10.062,17.562,0,35l36-1C58.218,20.284,26,12,26,12L26,12z"/><path fill="#8bb7f0" d="M2,78h76V63.755C75.384,63.227,72.296,62,70,62c-2.917,0-7.125,2-10,2c-2.875,0-7.083-2-10-2	s-7.125,2-10,2c-2.875,0-7.083-2-10-2s-7.125,2-10,2c-2.875,0-7.083-2-10-2c-2.296,0-5.384,1.227-8,1.755V78z"/><path fill="#4e7ab5" d="M70,62c-2.917,0-7.125,2-10,2s-7.083-2-10-2s-7.125,2-10,2s-7.083-2-10-2s-7.125,2-10,2	s-7.083-2-10-2c-2.296,0-5.384,1.227-8,1.755v1C4.616,64.227,7.704,63,10,63c2.917,0,7.125,2,10,2s7.083-2,10-2s7.125,2,10,2	s7.083-2,10-2s7.125,2,10,2s7.083-2,10-2c2.296,0,5.384,1.227,8,1.755v-1C75.384,63.227,72.296,62,70,62z"/></svg>