<?xml version="1.0" encoding="UTF-8"?>
<svg xmlns="http://www.w3.org/2000/svg" xmlns:xlink="http://www.w3.org/1999/xlink" width="20pt" height="20pt" viewBox="0 0 20 20" version="1.1">
<g id="surface4141550">
<path style=" stroke:none;fill-rule:nonzero;fill:rgb(100%,100%,100%);fill-opacity:1;" d="M 10.398438 2.25 L 2.617188 10.03125 C 2.128906 10.515625 2.128906 11.3125 2.617188 11.796875 L 8.203125 17.382812 C 8.6875 17.871094 9.484375 17.871094 9.96875 17.382812 L 17.75 9.601562 L 17.75 4.5 C 17.75 3.261719 16.738281 2.25 15.5 2.25 Z M 10.605469 2.75 L 15.5 2.75 C 16.46875 2.75 17.25 3.53125 17.25 4.5 L 17.25 9.398438 L 9.617188 17.03125 C 9.320312 17.324219 8.851562 17.324219 8.554688 17.03125 L 2.96875 11.445312 C 2.675781 11.148438 2.675781 10.679688 2.96875 10.382812 Z M 11.75 3.5 C 11.613281 3.5 11.5 3.613281 11.5 3.75 C 11.5 3.886719 11.613281 4 11.75 4 C 11.886719 4 12 3.886719 12 3.75 C 12 3.613281 11.886719 3.5 11.75 3.5 Z M 12.75 3.5 C 12.613281 3.5 12.5 3.613281 12.5 3.75 C 12.5 3.886719 12.613281 4 12.75 4 C 12.886719 4 13 3.886719 13 3.75 C 13 3.613281 12.886719 3.5 12.75 3.5 Z M 13.75 3.5 C 13.613281 3.5 13.5 3.613281 13.5 3.75 C 13.5 3.886719 13.613281 4 13.75 4 C 13.886719 4 14 3.886719 14 3.75 C 14 3.613281 13.886719 3.5 13.75 3.5 Z M 10.75 3.75 C 10.613281 3.75 10.5 3.863281 10.5 4 C 10.5 4.136719 10.613281 4.25 10.75 4.25 C 10.886719 4.25 11 4.136719 11 4 C 11 3.863281 10.886719 3.75 10.75 3.75 Z M 15.25 3.75 C 14.699219 3.75 14.25 4.199219 14.25 4.75 C 14.25 5.300781 14.699219 5.75 15.25 5.75 C 15.800781 5.75 16.25 5.300781 16.25 4.75 C 16.25 4.199219 15.800781 3.75 15.25 3.75 Z M 15.25 4.25 C 15.527344 4.25 15.75 4.472656 15.75 4.75 C 15.75 5.027344 15.527344 5.25 15.25 5.25 C 14.972656 5.25 14.75 5.027344 14.75 4.75 C 14.75 4.472656 14.972656 4.25 15.25 4.25 Z M 10 4.5 C 9.863281 4.5 9.75 4.613281 9.75 4.75 C 9.75 4.886719 9.863281 5 10 5 C 10.136719 5 10.25 4.886719 10.25 4.75 C 10.25 4.613281 10.136719 4.5 10 4.5 Z M 9.25 5.25 C 9.113281 5.25 9 5.363281 9 5.5 C 9 5.636719 9.113281 5.75 9.25 5.75 C 9.386719 5.75 9.5 5.636719 9.5 5.5 C 9.5 5.363281 9.386719 5.25 9.25 5.25 Z M 8.5 6 C 8.363281 6 8.25 6.113281 8.25 6.25 C 8.25 6.386719 8.363281 6.5 8.5 6.5 C 8.636719 6.5 8.75 6.386719 8.75 6.25 C 8.75 6.113281 8.636719 6 8.5 6 Z M 16.25 6 C 16.113281 6 16 6.113281 16 6.25 C 16 6.386719 16.113281 6.5 16.25 6.5 C 16.386719 6.5 16.5 6.386719 16.5 6.25 C 16.5 6.113281 16.386719 6 16.25 6 Z M 7.75 6.75 C 7.613281 6.75 7.5 6.863281 7.5 7 C 7.5 7.136719 7.613281 7.25 7.75 7.25 C 7.886719 7.25 8 7.136719 8 7 C 8 6.863281 7.886719 6.75 7.75 6.75 Z M 16.25 7 C 16.113281 7 16 7.113281 16 7.25 C 16 7.386719 16.113281 7.5 16.25 7.5 C 16.386719 7.5 16.5 7.386719 16.5 7.25 C 16.5 7.113281 16.386719 7 16.25 7 Z M 11.242188 7.097656 C 10.894531 7.085938 10.5625 7.21875 10.285156 7.496094 C 9.816406 7.964844 9.785156 8.582031 10.1875 9.253906 L 10.347656 9.523438 L 9.25 10.621094 C 8.929688 10.222656 8.898438 9.792969 9.160156 9.480469 L 8.652344 8.972656 C 8.09375 9.53125 8.152344 10.34375 8.792969 11.078125 L 8.480469 11.390625 L 8.808594 11.71875 L 9.125 11.402344 C 9.890625 12.050781 10.667969 12.085938 11.253906 11.496094 C 11.753906 11 11.777344 10.410156 11.316406 9.660156 L 11.144531 9.386719 L 12.183594 8.347656 C 12.460938 8.703125 12.472656 9.128906 12.214844 9.402344 L 12.71875 9.90625 C 13.242188 9.355469 13.210938 8.566406 12.644531 7.886719 L 12.976562 7.554688 L 12.648438 7.222656 L 12.316406 7.554688 C 11.960938 7.261719 11.589844 7.109375 11.242188 7.097656 Z M 7 7.5 C 6.863281 7.5 6.75 7.613281 6.75 7.75 C 6.75 7.886719 6.863281 8 7 8 C 7.136719 8 7.25 7.886719 7.25 7.75 C 7.25 7.613281 7.136719 7.5 7 7.5 Z M 11.324219 7.785156 C 11.503906 7.792969 11.691406 7.871094 11.855469 8.015625 L 10.882812 8.984375 C 10.605469 8.570312 10.59375 8.214844 10.84375 7.96875 C 10.972656 7.835938 11.144531 7.777344 11.324219 7.785156 Z M 16.25 8 C 16.113281 8 16 8.113281 16 8.25 C 16 8.386719 16.113281 8.5 16.25 8.5 C 16.386719 8.5 16.5 8.386719 16.5 8.25 C 16.5 8.113281 16.386719 8 16.25 8 Z M 6.25 8.25 C 6.113281 8.25 6 8.363281 6 8.5 C 6 8.636719 6.113281 8.75 6.25 8.75 C 6.386719 8.75 6.5 8.636719 6.5 8.5 C 6.5 8.363281 6.386719 8.25 6.25 8.25 Z M 5.5 9 C 5.363281 9 5.25 9.113281 5.25 9.25 C 5.25 9.386719 5.363281 9.5 5.5 9.5 C 5.636719 9.5 5.75 9.386719 5.75 9.25 C 5.75 9.113281 5.636719 9 5.5 9 Z M 16 9 C 15.863281 9 15.75 9.113281 15.75 9.25 C 15.75 9.386719 15.863281 9.5 16 9.5 C 16.136719 9.5 16.25 9.386719 16.25 9.25 C 16.25 9.113281 16.136719 9 16 9 Z M 4.75 9.75 C 4.613281 9.75 4.5 9.863281 4.5 10 C 4.5 10.136719 4.613281 10.25 4.75 10.25 C 4.886719 10.25 5 10.136719 5 10 C 5 9.863281 4.886719 9.75 4.75 9.75 Z M 15.25 9.75 C 15.113281 9.75 15 9.863281 15 10 C 15 10.136719 15.113281 10.25 15.25 10.25 C 15.386719 10.25 15.5 10.136719 15.5 10 C 15.5 9.863281 15.386719 9.75 15.25 9.75 Z M 10.613281 9.917969 C 10.941406 10.40625 10.964844 10.765625 10.6875 11.039062 C 10.378906 11.347656 9.972656 11.316406 9.570312 10.957031 Z M 4 10.5 C 3.863281 10.5 3.75 10.613281 3.75 10.75 C 3.75 10.886719 3.863281 11 4 11 C 4.136719 11 4.25 10.886719 4.25 10.75 C 4.25 10.613281 4.136719 10.5 4 10.5 Z M 14.5 10.5 C 14.363281 10.5 14.25 10.613281 14.25 10.75 C 14.25 10.886719 14.363281 11 14.5 11 C 14.636719 11 14.75 10.886719 14.75 10.75 C 14.75 10.613281 14.636719 10.5 14.5 10.5 Z M 4.75 11.25 C 4.613281 11.25 4.5 11.363281 4.5 11.5 C 4.5 11.636719 4.613281 11.75 4.75 11.75 C 4.886719 11.75 5 11.636719 5 11.5 C 5 11.363281 4.886719 11.25 4.75 11.25 Z M 13.75 11.25 C 13.613281 11.25 13.5 11.363281 13.5 11.5 C 13.5 11.636719 13.613281 11.75 13.75 11.75 C 13.886719 11.75 14 11.636719 14 11.5 C 14 11.363281 13.886719 11.25 13.75 11.25 Z M 5.5 12 C 5.363281 12 5.25 12.113281 5.25 12.25 C 5.25 12.386719 5.363281 12.5 5.5 12.5 C 5.636719 12.5 5.75 12.386719 5.75 12.25 C 5.75 12.113281 5.636719 12 5.5 12 Z M 13 12 C 12.863281 12 12.75 12.113281 12.75 12.25 C 12.75 12.386719 12.863281 12.5 13 12.5 C 13.136719 12.5 13.25 12.386719 13.25 12.25 C 13.25 12.113281 13.136719 12 13 12 Z M 6.25 12.75 C 6.113281 12.75 6 12.863281 6 13 C 6 13.136719 6.113281 13.25 6.25 13.25 C 6.386719 13.25 6.5 13.136719 6.5 13 C 6.5 12.863281 6.386719 12.75 6.25 12.75 Z M 12.25 12.75 C 12.113281 12.75 12 12.863281 12 13 C 12 13.136719 12.113281 13.25 12.25 13.25 C 12.386719 13.25 12.5 13.136719 12.5 13 C 12.5 12.863281 12.386719 12.75 12.25 12.75 Z M 7 13.5 C 6.863281 13.5 6.75 13.613281 6.75 13.75 C 6.75 13.886719 6.863281 14 7 14 C 7.136719 14 7.25 13.886719 7.25 13.75 C 7.25 13.613281 7.136719 13.5 7 13.5 Z M 11.5 13.5 C 11.363281 13.5 11.25 13.613281 11.25 13.75 C 11.25 13.886719 11.363281 14 11.5 14 C 11.636719 14 11.75 13.886719 11.75 13.75 C 11.75 13.613281 11.636719 13.5 11.5 13.5 Z M 7.75 14.25 C 7.613281 14.25 7.5 14.363281 7.5 14.5 C 7.5 14.636719 7.613281 14.75 7.75 14.75 C 7.886719 14.75 8 14.636719 8 14.5 C 8 14.363281 7.886719 14.25 7.75 14.25 Z M 10.75 14.25 C 10.613281 14.25 10.5 14.363281 10.5 14.5 C 10.5 14.636719 10.613281 14.75 10.75 14.75 C 10.886719 14.75 11 14.636719 11 14.5 C 11 14.363281 10.886719 14.25 10.75 14.25 Z M 8.5 15 C 8.363281 15 8.25 15.113281 8.25 15.25 C 8.25 15.386719 8.363281 15.5 8.5 15.5 C 8.636719 15.5 8.75 15.386719 8.75 15.25 C 8.75 15.113281 8.636719 15 8.5 15 Z M 10 15 C 9.863281 15 9.75 15.113281 9.75 15.25 C 9.75 15.386719 9.863281 15.5 10 15.5 C 10.136719 15.5 10.25 15.386719 10.25 15.25 C 10.25 15.113281 10.136719 15 10 15 Z M 9.25 15.75 C 9.113281 15.75 9 15.863281 9 16 C 9 16.136719 9.113281 16.25 9.25 16.25 C 9.386719 16.25 9.5 16.136719 9.5 16 C 9.5 15.863281 9.386719 15.75 9.25 15.75 Z M 9.25 15.75 "/>
</g>
</svg>
