<?xml version="1.0" encoding="UTF-8"?>
<svg xmlns="http://www.w3.org/2000/svg" xmlns:xlink="http://www.w3.org/1999/xlink" width="20pt" height="20pt" viewBox="0 0 20 20" version="1.1">
<g id="surface4276969">
<path style=" stroke:none;fill-rule:nonzero;fill:rgb(100%,100%,100%);fill-opacity:1;" d="M 19.199219 8.152344 L 19.199219 2.199219 C 19.199219 1.429688 18.570312 0.800781 17.800781 0.800781 L 11.597656 0.800781 C 11.078125 0.800781 10.585938 0.828125 10.230469 1.1875 L 1.140625 10.273438 C 0.921875 10.492188 0.800781 10.785156 0.800781 11.09375 C 0.800781 11.402344 0.921875 11.691406 1.140625 11.910156 L 8.089844 18.859375 C 8.304688 19.078125 8.597656 19.199219 8.90625 19.199219 C 9.214844 19.199219 9.507812 19.078125 9.722656 18.859375 L 18.8125 9.769531 C 19.203125 9.378906 19.203125 8.820312 19.199219 8.28125 Z M 12.757812 10.601562 L 12.199219 10.039062 C 12.558594 9.519531 12.640625 8.878906 12.039062 8.28125 C 11.199219 7.441406 10.519531 7.921875 10.28125 8.160156 C 9.71875 8.71875 10.078125 9.398438 10.5625 10.160156 C 11.121094 11.078125 11.601562 12.121094 10.679688 13.039062 C 9.601562 14.160156 8.28125 13.480469 7.761719 13.121094 L 7.242188 13.640625 L 6.679688 13.078125 L 7.242188 12.519531 C 6.839844 11.960938 6.28125 10.839844 7.398438 9.519531 L 7.960938 10.078125 C 7.601562 10.4375 7.160156 11.359375 8.039062 12.238281 C 8.921875 13.121094 9.519531 12.921875 10 12.4375 C 11.359375 11.078125 7.800781 9.359375 9.601562 7.558594 C 10.558594 6.601562 11.757812 7.039062 12.28125 7.4375 L 12.921875 6.800781 L 13.480469 7.359375 L 12.839844 8 C 13.519531 8.960938 13.199219 9.800781 12.757812 10.601562 Z M 15.601562 5.601562 C 14.9375 5.601562 14.398438 5.0625 14.398438 4.398438 C 14.398438 3.738281 14.9375 3.199219 15.601562 3.199219 C 16.261719 3.199219 16.800781 3.738281 16.800781 4.398438 C 16.800781 5.0625 16.261719 5.601562 15.601562 5.601562 Z M 15.601562 5.601562 "/>
</g>
</svg>
